<?xml version="1.0" ?>
<COLLADA xmlns="http://www.collada.org/2005/11/COLLADASchema" version="1.4.1">
    <asset>
        <unit />
        <up_axis>Z_UP</up_axis>
    </asset>
    <library_materials>
        <material id="MAT" name="Sunduk">
            <instance_effect url="#MAT-fx" />
        </material>
    </library_materials>
    <library_effects>
        <effect id="MAT-fx" name="Sunduk">
            <profile_COMMON>
                <image id="IMAGE" height="0" width="0">
                    <init_from>/C:/Users/huydo/Downloads/___OPEN3D/Sketchfab/temp/78425/textures/Sunduk_baseColor.png</init_from>
                </image>
                <technique sid="standard">
                    <phong>
                        <emission>
                            <color>0 0 0 1</color>
                        </emission>
                        <ambient>
                            <color>0.117647 0.117647 0.117647 1</color>
                        </ambient>
                        <diffuse>
                            <texture texture="IMAGE" texcoord="" />
                        </diffuse>
                        <specular>
                            <color>0.752941 0.752941 0.752941 1</color>
                        </specular>
                        <shininess>
                            <float>0.6</float>
                        </shininess>
                        <reflective>
                            <color>0 0 0 1</color>
                        </reflective>
                        <reflectivity>
                            <float>1</float>
                        </reflectivity>
                        <transparent>
                            <color>1 1 1 1</color>
                        </transparent>
                        <transparency>
                            <float>0</float>
                        </transparency>
                    </phong>
                </technique>
            </profile_COMMON>
        </effect>
    </library_effects>
    <library_geometries>
        <geometry id="NODE4-lib" name="NODE4Mesh">
            <mesh>
                <source id="NODE4-lib-positions">
                    <float_array id="NODE4-lib-positions-array" count="951">-36.7794 0.3 -50.5841 32.7539 0.3 -50.4841 32.6539 0.3 79.5492 -36.8794 0.3 79.4492 -33.0135 3.53669 -46.6065 -33.0135 3.53669 75.5715 28.888 3.53669 75.5715 28.888 3.53669 -46.6065 -36.8794 43.7 79.4492 32.6539 43.7 79.5492 32.7539 43.7 -50.4841 -36.7794 43.7 -50.5841 -33.0135 43.7 75.5715 -33.0135 43.7 -46.6065 28.888 43.7 -46.6065 28.888 43.7 75.5715 -10.6358 28.5833 -52.1294 -10.6358 29.6448 -52.2598 -10.6358 31.1296 -49.981 -10.6358 29.3566 -49.981 -10.6358 27.9498 -51.4409 -11.4249 27.9498 -51.4409 -11.4249 29.3566 -49.981 -11.4249 31.1296 -49.981 -11.4249 29.6448 -52.2598 -11.4249 28.5833 -52.1294 4.8832 28.5833 -52.1294 4.8832 29.6448 -52.2598 4.8832 31.1296 -49.981 4.8832 29.3566 -49.981 4.8832 27.9498 -51.4409 4.09416 27.9498 -51.4409 4.09416 29.3566 -49.981 4.09416 31.1296 -49.981 4.09416 29.6448 -52.2598 4.09416 28.5833 -52.1294 -8.57329 21.8826 -52.2091 -3.22042 21.6851 -52.2184 -3.22042 20.8434 -51.6539 -8.69086 21.5246 -51.6221 -8.33815 22.5424 -52.1783 -8.22058 22.8441 -51.5604 -3.22042 22.2373 -51.5888 -8.45574 22.1561 -50.9888 -3.22042 21.3957 -51.0243 -11.1345 24.003 -52.11 -11.6855 23.5407 -51.5278 -10.5793 24.4122 -51.4871 -11.1314 23.9491 -50.905 -12.4393 27.7793 -51.9335 -13.0548 27.6612 -51.3352 -11.5301 28.2419 -51.3081 -11.8825 28.3797 -50.9477 -12.6265 28.1377 -50.8176 -8.7563 29.3032 -50.3992 -8.78715 28.8754 -51.2785 -8.75912 29.3273 -52.1166 -8.73804 29.5607 -51.2464 -12.7802 29.2333 -51.2617 -11.6781 28.6516 -51.5812 -11.3458 29.9029 -51.2304 -11.3724 29.5811 -51.5874 -11.1047 29.5147 -50.8186 -11.2602 28.8273 -50.953 -10.6119 28.6802 -51.2876 2.15155 21.9741 -52.2049 2.27062 21.6166 -51.6178 1.91342 22.6328 -52.1741 1.79435 22.9339 -51.5562 1.91342 22.5764 -50.9691 2.15155 21.9178 -50.9999 4.70305 24.1061 -52.1052 5.25606 23.6463 -51.5229 4.14593 24.5128 -51.4824 4.69999 24.0521 -50.9002 5.99072 27.8883 -51.9284 6.60653 27.773 -51.33 5.07926 28.3468 -51.3032 5.43099 28.4861 -50.9427 6.17598 28.2475 -50.8125 2.30354 29.4195 -52.1123 2.33344 28.9678 -51.2741 2.30047 29.3954 -50.3949 2.28122 29.6529 -51.2421 6.32483 29.3438 -51.2566 5.2255 28.7571 -51.5763 4.91555 29.6853 -51.5825 4.88736 30.0069 -51.2256 4.64799 29.6176 -50.8138 4.80659 28.931 -50.9482 4.15905 28.7809 -51.2829 -10.6358 31.1296 79.0594 -10.6358 29.6448 81.3383 -10.6358 28.5833 81.2078 -10.6358 29.3566 79.0594 -10.6358 27.9498 80.5193 -11.4249 31.1296 79.0594 -11.4249 29.3566 79.0594 -11.4249 27.9498 80.5193 -11.4249 29.6448 81.3383 -11.4249 28.5833 81.2078 4.8832 31.1296 79.0594 4.8832 29.6448 81.3383 4.8832 28.5833 81.2078 4.8832 29.3566 79.0594 4.8832 27.9498 80.5193 4.09416 31.1296 79.0594 4.09416 29.3566 79.0594 4.09416 27.9498 80.5193 4.09416 29.6448 81.3383 4.09416 28.5833 81.2078 -8.57329 21.8826 81.2876 -8.69086 21.5246 80.7005 -3.22042 20.8434 80.7324 -3.22042 21.6851 81.2968 -8.33815 22.5424 81.2567 -8.22058 22.8441 80.6389 -3.22042 22.2373 80.6672 -8.45574 22.1561 80.0672 -3.22042 21.3957 80.1028 -11.1345 24.003 81.1885 -11.6855 23.5407 80.6063 -10.5793 24.4122 80.5655 -11.1314 23.9491 79.9834 -12.4394 27.7793 81.0119 -13.0548 27.6612 80.4137 -11.5301 28.2419 80.3865 -11.8825 28.3797 80.0262 -12.6265 28.1377 79.896 -8.75912 29.3273 81.1951 -8.78715 28.8754 80.3569 -8.7563 29.3032 79.4776 -8.73804 29.5607 80.3249 -12.7802 29.2333 80.3402 -11.6781 28.6516 80.6597 -11.3724 29.5811 80.6658 -11.3458 29.9029 80.3089 -11.1047 29.5147 79.897 -11.2602 28.8273 80.0315 -10.6119 28.6802 80.366 2.15155 21.9741 81.2833 2.27062 21.6166 80.6962 1.91342 22.6328 81.2525 1.79435 22.9339 80.6347 1.91342 22.5764 80.0476 2.15155 21.9178 80.0784 4.70305 24.1061 81.1836 5.25606 23.6463 80.6014 4.14593 24.5128 80.5608 4.7 24.0521 79.9786 5.99072 27.8883 81.0068 6.60653 27.773 80.4084 5.07926 28.3468 80.3816 5.43099 28.4861 80.0212 6.17598 28.2475 79.8909 2.30047 29.3954 79.4733 2.33344 28.9678 80.3526 2.30354 29.4195 81.1908 2.28122 29.6529 80.3206 6.32483 29.3438 80.335 5.22547 28.7571 80.6547 4.88736 30.0069 80.304 4.91556 29.6853 80.661 4.64797 29.6176 79.8922 4.80659 28.931 80.0266 4.15905 28.7809 80.3613 33.0939 38.3864 -27.4884 33.1367 43.9317 -21.3051 33.0368 38.3864 -21.3051 33.0939 36.93 -22.7616 33.0368 36.93 -26.0319 32.7371 43.9317 -27.4884 33.0939 38.3864 49.0106 33.1367 43.9317 55.1939 33.0368 38.3864 55.1939 33.0939 36.93 53.7374 33.0368 36.93 50.4671 32.7371 43.9317 49.0106 -40.6162 31.5509 14.1825 -40.6162 32.9348 14.1825 -39.7555 33.7955 14.1825 -36.7116 33.7955 14.3851 -36.7116 30.6902 14.1825 -39.7555 30.6902 14.1825 -39.7555 33.7955 14.7825 -40.6162 32.9348 14.7825 -40.6162 31.5509 14.7825 -39.7555 30.6902 14.7825 -36.7116 30.6902 14.7825 -33.7985 51.1257 -47.4169 -27.8738 51.1257 -47.4169 -27.8738 51.1257 76.382 -33.7985 51.1257 76.382 -14.6509 51.6025 -47.4169 -0.0257757 51.6974 -47.4169 -0.0257952 51.6974 76.382 -14.651 51.6025 76.382 16.0168 51.4128 -47.4169 16.0168 51.4128 76.382 27.3079 50.6485 -47.4169 27.3078 50.6485 76.382 29.8433 50.4558 -47.4169 29.8433 50.4558 76.382 -36.9231 54.1087 -50.4923 -36.9182 54.1102 79.4292 -30.348 54.1446 79.4659 -30.348 54.1446 -50.5008 -15.9533 54.7233 -50.5008 -15.9534 54.7233 79.4659 -0.0310423 54.8579 79.4659 -0.0310214 54.8579 -50.5008 17.4344 54.2487 79.4659 17.4344 54.2487 -50.5008 29.7269 53.21 79.4659 29.7269 53.21 -50.5008 32.6388 53.2086 79.4574 32.6621 53.2086 -50.469 -36.8794 43.7232 -50.5008 -36.8794 43.7232 79.4659 32.5655 43.7354 79.4646 32.5539 43.7232 -50.5008 29.8433 43.7263 -47.4169 -33.7985 43.7263 -47.4169 29.8433 43.7263 76.382 -33.7985 43.7263 76.382 33.8295 43.4918 -20.7918 32.9854 43.4918 -20.7918 32.9854 43.4918 -28.0017 33.8295 43.4918 -28.0017 32.5634 44.2228 -20.7918 32.5634 44.2228 -28.0017 32.9854 44.9538 -20.7918 32.9854 44.9538 -28.0017 33.8295 44.9538 -20.7918 33.8295 44.9538 -28.0017 34.2516 44.2228 -20.7918 34.2516 44.2228 -28.0017 32.9173 49.8982 -21.3051 32.9601 44.2251 -27.4884 32.8602 49.8982 -27.4884 32.9173 51.3547 -26.0319 32.8602 51.3547 -22.7616 32.5606 44.2251 -21.3051 33.8295 43.4918 55.7072 32.9854 43.4918 55.7072 32.9854 43.4918 48.4973 33.8295 43.4918 48.4973 32.5634 44.2228 55.7071 32.5634 44.2228 48.4973 32.9854 44.9538 55.7071 32.9854 44.9538 48.4973 33.8295 44.9538 55.7071 33.8295 44.9538 48.4973 34.2516 44.2228 55.7071 34.2516 44.2228 48.4973 33.06 49.8982 55.1939 33.06 44.2251 55.1939 33.06 44.2251 49.0106 33.06 49.8982 49.0106 33.06 51.3547 50.4671 33.06 51.3547 53.7374 -37.0537 43.7629 17.8929 -36.8794 48.8194 17.8929 -36.8794 48.8194 11.0722 -36.8794 43.7451 11.0722 -37.0181 43.7571 11.0722 -37.0181 43.7571 17.8929 -38.306 30.1052 12.1501 -38.419 29.0244 13.3255 -38.419 29.0244 15.6396 -38.306 30.1052 16.815 -40.0122 30.4277 17.867 -39.4926 30.7783 18.0829 -40.0122 30.5146 17.2219 -39.4926 30.225 16.9895 -38.9729 30.1988 17.3074 -38.9729 30.7977 17.7668 -40.0122 31.8742 16.4056 -39.4926 32.4116 16.7168 -39.4926 31.3369 16.0944 -38.9729 31.8742 16.4056 -40.0122 32.5705 14.6464 -39.4926 32.8705 14.4784 -40.0122 31.9705 14.3369 -39.4926 31.6705 14.4784 -38.9729 31.9705 14.6198 -38.9729 32.5705 14.3103 -40.0122 31.8742 12.5511 -39.4926 32.4116 12.2399 -39.4926 31.3369 12.8623 -38.9729 31.8742 12.5511 -40.0122 30.7977 11.1899 -39.4926 30.7783 10.8739 -40.0122 30.1988 11.6493 -39.4926 30.2559 11.9756 -38.9729 30.5146 11.7349 -38.9729 30.4277 11.0897 -39.6658 26.3103 10.6142 -39.7153 26.3103 11.5856 -38.9729 26.3103 11.2142 -40.0122 27.0169 17.6765 -39.3679 27.0169 18.3705 -39.4926 27.0169 17.2425 -38.9729 27.0169 17.5425 -38.2923 20.2147 10.549 -38.2923 27.7365 18.4077 -38.2923 20.2147 18.4077 -40.6929 20.2147 10.549 -40.6929 27.7365 18.4077 -39.0041 20.2147 19.1195 -39.9811 20.2147 19.1195 -39.9811 20.2147 9.83722 -39.0041 20.2147 9.83722 -39.0041 27.7365 19.1195 -39.9811 27.7365 19.1195 -39.0041 27.7365 9.83722 -39.9811 27.7365 9.83722</float_array>
                    <technique_common>
                        <accessor count="317" source="#NODE4-lib-positions-array" stride="3">
                            <param name="X" type="float" />
                            <param name="Y" type="float" />
                            <param name="Z" type="float" />
                        </accessor>
                    </technique_common>
                </source>
                <source id="NODE4-lib-uv">
                    <float_array id="NODE4-lib-uv-array" count="942">0.298605 0.968632 0.298534 0.935727 0.236868 0.935797 0.236938 0.968702 0.111615 0.513707 0.111571 0.385951 0.0298586 0.386125 0.0299026 0.513882 0.998449 0.998458 0.998331 0.780625 0.00281599 0.998458 0.00293368 0.780625 0.350533 0.999958 0.350567 0.780625 0.348316 0.998458 0.348198 0.780625 0.293796 0.0060252 0.278995 0.020871 0.279763 0.51992 0.012054 0.00561762 0.0115107 0.533317 0.02568 0.51992 0.0263115 0.0215506 0.292709 0.53454 0.277656 0.517923 0.276979 0.0226432 0.113976 0.0226432 0.113976 0.517827 0.276412 0.0226432 0.277089 0.518599 0.113409 0.518504 0.113409 0.0233197 0.349532 0.780625 0.349649 0.998458 0.349116 0.998458 0.349234 0.780625 0.999664 0.780625 0.999782 0.998458 0.00160027 0.780625 0.00148261 0.998458 0.115492 0.518528 0.278322 0.518623 0.114943 0.518698 0.2771 0.518698 0.114943 0.268774 0.2771 0.268774 0.115492 0.268604 0.278322 0.268509 0.319036 0.456614 0.312429 0.456614 0.310301 0.456614 0.316384 0.456614 0.321209 0.456614 0.321209 0.453215 0.316384 0.453215 0.310301 0.453215 0.315395 0.453215 0.319036 0.453215 0.319036 0.523466 0.312429 0.523466 0.310301 0.523466 0.316384 0.523466 0.321209 0.523466 0.321209 0.520067 0.316384 0.520067 0.310301 0.520067 0.315395 0.520067 0.319036 0.520067 0.341538 0.468896 0.341629 0.487011 0.344541 0.487011 0.342802 0.468393 0.339209 0.469883 0.338143 0.470367 0.339719 0.487011 0.340571 0.46937 0.34263 0.487011 0.333793 0.454471 0.335855 0.452524 0.33191 0.456447 0.333977 0.454497 0.321795 0.448857 0.322198 0.446208 0.320208 0.452759 0.319735 0.45124 0.320564 0.448037 0.316567 0.464711 0.318034 0.464578 0.316484 0.464698 0.315683 0.464789 0.316807 0.447377 0.318802 0.452124 0.314509 0.453556 0.315613 0.453441 0.315841 0.454594 0.318199 0.453925 0.318704 0.456717 0.341978 0.502909 0.343298 0.503121 0.339529 0.502477 0.338399 0.502258 0.339719 0.50247 0.342168 0.502902 0.335888 0.518247 0.33812 0.51983 0.333823 0.516611 0.33606 0.518197 0.323156 0.527659 0.324521 0.529871 0.320045 0.524376 0.319757 0.525839 0.321732 0.528547 0.315724 0.512927 0.317243 0.512968 0.315804 0.51291 0.314937 0.512878 0.316929 0.529817 0.318632 0.525085 0.315452 0.523957 0.314369 0.523899 0.315615 0.52282 0.317951 0.523357 0.318301 0.520607 0.310301 0.456614 0.312429 0.456614 0.319036 0.456614 0.316384 0.456614 0.321209 0.456614 0.310301 0.453215 0.316384 0.453215 0.321209 0.453215 0.315395 0.453215 0.319036 0.453215 0.310301 0.523466 0.312429 0.523466 0.319036 0.523466 0.316384 0.523466 0.321209 0.523466 0.310301 0.520067 0.316384 0.520067 0.321209 0.520067 0.315395 0.520067 0.319036 0.520067 0.341538 0.468896 0.342802 0.468393 0.344541 0.487011 0.341629 0.487011 0.339209 0.469883 0.338143 0.470367 0.339719 0.487011 0.340571 0.46937 0.34263 0.487011 0.333793 0.454471 0.335855 0.452524 0.33191 0.456447 0.333977 0.454497 0.321795 0.448856 0.322198 0.446208 0.320208 0.452759 0.319735 0.45124 0.320564 0.448037 0.316484 0.464698 0.318034 0.464578 0.316567 0.464711 0.315683 0.464789 0.316807 0.447377 0.318802 0.452124 0.315613 0.453441 0.314509 0.453556 0.315841 0.454594 0.318199 0.453924 0.318704 0.456717 0.341978 0.502909 0.343298 0.503121 0.339529 0.502477 0.338399 0.502258 0.339719 0.50247 0.342168 0.502902 0.335888 0.518247 0.33812 0.51983 0.333823 0.516611 0.33606 0.518197 0.323156 0.527659 0.324521 0.529871 0.320045 0.524376 0.319757 0.525839 0.321732 0.528547 0.315804 0.51291 0.317243 0.512968 0.315724 0.512927 0.314937 0.512878 0.316929 0.529817 0.318632 0.525085 0.314369 0.523899 0.315452 0.523957 0.315615 0.52282 0.317951 0.523357 0.318301 0.520607 0.371893 0.0757465 0.371893 0.0295612 0.320394 0.0295612 0.320394 0.0757465 0.332525 0.0878772 0.359762 0.0878772 0.371893 0.0757465 0.371893 0.0295612 0.320394 0.0295612 0.320394 0.0757465 0.332525 0.0878772 0.359762 0.0878772 0.323446 0.298964 0.316006 0.298964 0.311377 0.303592 0.311377 0.319959 0.328074 0.319959 0.328074 0.303592 0.328074 0.279421 0.323446 0.274792 0.316006 0.274792 0.311377 0.279421 0.311377 0.295787 0.328074 0.295787 0.309343 0.320186 0.309343 0.303826 0.306117 0.303826 0.306117 0.320186 0.309343 0.297298 0.306117 0.297298 0.309343 0.289879 0.306117 0.289879 0.309343 0.283351 0.306117 0.283351 0.307206 0.266991 0.377072 0.347335 0.377072 0.318567 0.996066 0.318567 0.996066 0.347335 0.377072 0.285974 0.377072 0.207813 0.996066 0.148231 0.996066 0.252453 0.377072 0.0991143 0.996066 0.0675168 0.377072 0.0426588 0.996066 0.0426589 0.377072 0.0299816 0.996066 0.0299817 0.350446 0.726731 0.998992 0.726906 0.998979 0.694122 0.350619 0.693935 0.350641 0.622067 0.999001 0.622253 0.999024 0.542817 0.350665 0.542632 0.999049 0.455632 0.350689 0.455448 0.999065 0.394089 0.350705 0.393905 0.999026 0.386058 0.350868 0.385758 0.350006 0.776878 0.999206 0.776878 0.347175 0.778982 0.314683 0.727106 0.347383 0.727287 0.0015517 0.778828 0.163797 0.723513 0.243042 0.724206 0.0768709 0.726522 0.0156899 0.731678 0.00119752 0.731681 0.999206 0.776878 0.349906 0.776778 0.349922 0.73141 0.998972 0.731222 0.00160874 0.779445 0.0156164 0.732212 0.00100743 0.732237 0.0767884 0.726961 0.163708 0.723813 0.347175 0.778982 0.242953 0.724377 0.347321 0.727293 0.314597 0.72716 0.352968 0.38688 0.633303 0.38688 0.62236 0.39933 0.365407 0.39933 0.351706 0.711075 0.999706 0.710922 0.985203 0.725017 0.366208 0.725017 0.940413 0.386208 0.653818 0.386202 0.666533 0.39893 0.929178 0.39893 1.00041 0.401839 0.351122 0.402179 0.366209 0.386558 0.985203 0.386558 0.331155 0.674683 0.301507 0.63211 0.331097 0.632057 0.235464 0.629483 0.0133067 0.675259 0.162421 0.629069 0.0823012 0.630854 0.0259157 0.635359 0.0132542 0.636491 0.377072 0.300676 0.996066 0.300676 0.996066 0.261483 0.377072 0.261483 0.0133062 0.609177 0.0260083 0.569638 0.0133504 0.570721 0.0823777 0.565356 0.162463 0.563851 0.331001 0.609662 0.235471 0.564505 0.301476 0.567331 0.331052 0.567377 0.996066 0.300676 0.377072 0.300676 0.377072 0.258134 0.996066 0.258134 0.330363 0.438322 0.336456 0.438322 0.336456 0.386283 0.330363 0.386283 0.342549 0.438322 0.342549 0.386283 0.305993 0.438322 0.312086 0.438322 0.312086 0.386283 0.305993 0.386283 0.318178 0.438322 0.318178 0.386283 0.324271 0.438322 0.324271 0.386283 0.314094 0.373158 0.308002 0.373253 0.305038 0.378576 0.308166 0.383804 0.314258 0.383709 0.317222 0.378386 0.321481 0.383654 0.327574 0.383654 0.33062 0.378378 0.327574 0.373101 0.321481 0.373101 0.318435 0.378378 0.371923 0.140542 0.371923 0.094357 0.320425 0.094357 0.320425 0.140542 0.332555 0.152673 0.359793 0.152673 0.330363 0.438322 0.336456 0.438322 0.336456 0.386283 0.330363 0.386283 0.342549 0.438322 0.342549 0.386283 0.305993 0.438322 0.312086 0.438322 0.312086 0.386283 0.305993 0.386283 0.318178 0.438322 0.318178 0.386283 0.324271 0.438322 0.324271 0.386283 0.314094 0.373158 0.308002 0.373253 0.305038 0.378576 0.308166 0.383804 0.314258 0.383709 0.317222 0.378386 0.321481 0.383654 0.327574 0.383654 0.33062 0.378378 0.327574 0.373101 0.321481 0.373101 0.318435 0.378378 0.371923 0.140542 0.371923 0.094357 0.320425 0.094357 0.320425 0.140542 0.332555 0.152673 0.359793 0.152673 0.372235 0.301033 0.373179 0.273864 0.334642 0.272034 0.33279 0.30115 0.333532 0.301078 0.372427 0.301078 0.339262 0.375252 0.346339 0.381478 0.35962 0.381478 0.366697 0.375252 0.365305 0.374309 0.359097 0.379897 0.346862 0.379897 0.340654 0.374309 0.396473 0.364862 0.397411 0.367942 0.398839 0.361804 0.398196 0.358535 0.396912 0.374148 0.398091 0.377334 0.398393 0.370955 0.407508 0.363385 0.407579 0.367985 0.407395 0.358594 0.407484 0.372583 0.407344 0.377369 0.417279 0.364695 0.418079 0.367992 0.418924 0.361465 0.418079 0.358255 0.41723 0.374516 0.418079 0.377725 0.418881 0.371289 0.42865 0.363385 0.428579 0.367985 0.428763 0.358594 0.428674 0.372582 0.428813 0.377369 0.437738 0.364945 0.438747 0.367942 0.439181 0.361701 0.43777 0.358546 0.437377 0.374086 0.437873 0.377327 0.439715 0.370989 0.455025 0.366478 0.453509 0.358463 0.454248 0.374058 0.453389 0.378519 0.38209 0.361122 0.38108 0.368717 0.382923 0.357064 0.382182 0.375245 0.382768 0.378519 0.360187 0.267802 0.317937 0.227378 0.317938 0.267802 0.360181 0.174165 0.317944 0.214568 0.360191 0.161286 0.317934 0.161286 0.314107 0.165113 0.364019 0.170367 0.364019 0.165113 0.307325 0.174163 0.307325 0.214609 0.312565 0.214605 0.312565 0.174159 0.364019 0.223594 0.364019 0.21834 0.314107 0.21834 0.314107 0.223594 0.3708 0.214609 0.3708 0.174163 0.36556 0.174159 0.36556 0.214605 0.365596 0.267798 0.365595 0.227352 0.31253 0.227351 0.312529 0.267798</float_array>
                    <technique_common>
                        <accessor count="471" source="#NODE4-lib-uv-array" stride="2">
                            <param name="S" type="float" />
                            <param name="T" type="float" />
                        </accessor>
                    </technique_common>
                </source>
                <vertices id="NODE4-lib-vertices">
                    <input semantic="POSITION" source="#NODE4-lib-positions" />
                </vertices>
                <triangles count="530" material="MAT">
                    <input offset="0" semantic="VERTEX" source="#NODE4-lib-vertices" set="0" />
                    <input offset="1" semantic="TEXCOORD" source="#NODE4-lib-uv" set="0" />
                    <p>0 0 1 1 2 2 0 0 2 2 3 3 4 4 5 5 6 6 4 4 6 6 7 7 0 34 3 8 8 9 8 9 11 35 0 34 3 33 2 10 9 11 9 11 8 32 3 33 2 37 1 12 10 13 10 13 9 36 2 37 1 39 0 14 11 15 11 15 10 38 1 39 11 23 8 16 12 17 12 17 13 18 11 23 8 16 9 19 15 22 15 22 12 17 8 16 9 19 10 20 14 21 14 21 15 22 9 19 10 20 11 23 13 18 13 18 14 21 10 20 13 24 12 25 5 26 5 26 4 27 13 24 12 43 15 45 6 44 6 44 5 42 12 43 15 28 14 29 7 30 7 30 6 31 15 28 14 47 13 41 4 40 4 40 7 46 14 47 16 48 17 49 18 50 16 48 18 50 19 51 20 52 16 48 19 51 21 53 22 54 23 55 21 53 23 55 24 56 25 57 21 53 24 56 20 52 19 51 22 54 22 54 21 53 20 52 18 50 17 49 24 56 24 56 23 55 18 50 17 49 16 48 25 57 25 57 24 56 17 49 21 53 25 57 16 48 16 48 20 52 21 53 26 58 27 59 28 60 26 58 28 60 29 61 30 62 26 58 29 61 31 63 32 64 33 65 31 63 33 65 34 66 35 67 31 63 34 66 30 62 29 61 32 64 32 64 31 63 30 62 28 60 27 59 34 66 34 66 33 65 28 60 27 59 26 58 35 67 35 67 34 66 27 59 31 63 35 67 26 58 26 58 30 62 31 63 36 68 37 69 38 70 38 70 39 71 36 68 37 69 36 68 40 72 41 73 42 74 37 69 37 69 40 72 41 73 43 75 44 76 42 74 42 74 41 73 43 75 39 71 38 70 44 76 44 76 43 75 39 71 45 77 36 68 39 71 39 71 46 78 45 77 45 77 40 72 36 68 47 79 41 73 40 72 40 72 45 77 47 79 48 80 43 75 41 73 41 73 47 79 48 80 46 78 39 71 43 75 43 75 48 80 46 78 49 81 45 77 46 78 46 78 50 82 49 81 51 83 47 79 45 77 45 77 49 81 51 83 52 84 48 80 47 79 47 79 51 83 52 84 48 80 52 84 53 85 50 82 46 78 48 80 48 80 53 85 50 82 54 86 55 87 56 88 57 89 54 86 56 88 49 81 50 82 58 90 53 85 58 90 50 82 51 83 49 81 59 91 58 90 59 91 49 81 60 92 61 93 58 90 58 90 53 85 62 94 62 94 60 92 58 90 53 85 52 84 63 95 63 95 62 94 53 85 51 83 63 95 52 84 59 91 58 90 61 93 63 95 51 83 64 96 59 91 64 96 51 83 61 93 60 92 57 89 57 89 56 88 61 93 60 92 62 94 54 86 54 86 57 89 60 92 62 94 63 95 54 86 63 95 64 96 55 87 55 87 54 86 63 95 64 96 59 91 56 88 56 88 55 87 64 96 59 91 61 93 56 88 65 97 66 98 38 70 38 70 37 69 65 97 67 99 65 97 37 69 68 100 67 99 37 69 37 69 42 74 68 100 69 101 68 100 42 74 42 74 44 76 69 101 70 102 69 101 44 76 66 98 70 102 44 76 44 76 38 70 66 98 71 103 72 104 66 98 66 98 65 97 71 103 65 97 67 99 71 103 73 105 71 103 67 99 67 99 68 100 73 105 74 106 73 105 68 100 68 100 69 101 74 106 69 101 70 102 74 106 72 104 74 106 70 102 70 102 66 98 72 104 75 107 76 108 72 104 72 104 71 103 75 107 77 109 75 107 71 103 71 103 73 105 77 109 78 110 77 109 73 105 73 105 74 106 78 110 79 111 78 110 74 106 76 108 79 111 74 106 74 106 72 104 76 108 80 112 81 113 82 114 83 115 80 112 82 114 84 116 76 108 75 107 76 108 84 116 79 111 85 117 75 107 77 109 75 107 85 117 84 116 84 116 86 118 87 119 84 116 87 119 88 120 88 120 79 111 84 116 79 111 88 120 89 121 89 121 78 110 79 111 78 110 89 121 77 109 86 118 84 116 85 117 90 122 77 109 89 121 77 109 90 122 85 117 86 118 80 112 83 115 83 115 87 119 86 118 87 119 83 115 82 114 82 114 88 120 87 119 82 114 89 121 88 120 89 121 82 114 81 113 81 113 90 122 89 121 90 122 81 113 80 112 80 112 85 117 90 122 80 112 86 118 85 117 91 123 92 124 93 125 94 126 91 123 93 125 95 127 94 126 93 125 96 128 97 129 98 130 99 131 96 128 98 130 100 132 99 131 98 130 95 127 98 130 97 129 97 129 94 126 95 127 91 123 96 128 99 131 99 131 92 124 91 123 92 124 99 131 100 132 100 132 93 125 92 124 98 130 95 127 93 125 93 125 100 132 98 130 101 133 102 134 103 135 104 136 101 133 103 135 105 137 104 136 103 135 106 138 107 139 108 140 109 141 106 138 108 140 110 142 109 141 108 140 105 137 108 140 107 139 107 139 104 136 105 137 101 133 106 138 109 141 109 141 102 134 101 133 102 134 109 141 110 142 110 142 103 135 102 134 108 140 105 137 103 135 103 135 110 142 108 140 111 143 112 144 113 145 113 145 114 146 111 143 115 147 111 143 114 146 116 148 115 147 114 146 114 146 117 149 116 148 118 150 116 148 117 149 117 149 119 151 118 150 112 144 118 150 119 151 119 151 113 145 112 144 120 152 121 153 112 144 112 144 111 143 120 152 111 143 115 147 120 152 122 154 120 152 115 147 115 147 116 148 122 154 123 155 122 154 116 148 116 148 118 150 123 155 121 153 123 155 118 150 118 150 112 144 121 153 124 156 125 157 121 153 121 153 120 152 124 156 126 158 124 156 120 152 120 152 122 154 126 158 127 159 126 158 122 154 122 154 123 155 127 159 128 160 127 159 123 155 125 157 128 160 123 155 123 155 121 153 125 157 129 161 130 162 131 163 132 164 129 161 131 163 133 165 125 157 124 156 125 157 133 165 128 160 134 166 124 156 126 158 124 156 134 166 133 165 133 165 135 167 136 168 133 165 136 168 137 169 137 169 128 160 133 165 128 160 137 169 138 170 138 170 127 159 128 160 127 159 138 170 126 158 135 167 133 165 134 166 139 171 126 158 138 170 126 158 139 171 134 166 135 167 129 161 132 164 132 164 136 168 135 167 136 168 132 164 131 163 131 163 137 169 136 168 131 163 138 170 137 169 138 170 131 163 130 162 130 162 139 171 138 170 139 171 130 162 129 161 129 161 134 166 139 171 129 161 135 167 134 166 140 172 114 146 113 145 113 145 141 173 140 172 114 146 140 172 142 174 143 175 117 149 114 146 114 146 142 174 143 175 144 176 119 151 117 149 117 149 143 175 144 176 119 151 144 176 145 177 141 173 113 145 119 151 119 151 145 177 141 173 146 178 140 172 141 173 141 173 147 179 146 178 146 178 142 174 140 172 148 180 143 175 142 174 142 174 146 178 148 180 149 181 144 176 143 175 143 175 148 180 149 181 149 181 145 177 144 176 147 179 141 173 145 177 145 177 149 181 147 179 150 182 146 178 147 179 147 179 151 183 150 182 152 184 148 180 146 178 146 178 150 182 152 184 153 185 149 181 148 180 148 180 152 184 153 185 149 181 153 185 154 186 151 183 147 179 149 181 149 181 154 186 151 183 155 187 156 188 157 189 158 190 155 187 157 189 150 182 151 183 159 191 154 186 159 191 151 183 152 184 150 182 160 192 159 191 160 192 150 182 161 193 162 194 159 191 159 191 154 186 163 195 163 195 161 193 159 191 154 186 153 185 164 196 164 196 163 195 154 186 152 184 164 196 153 185 160 192 159 191 162 194 164 196 152 184 165 197 160 192 165 197 152 184 162 194 161 193 158 190 158 190 157 189 162 194 161 193 163 195 155 187 155 187 158 190 161 193 163 195 164 196 155 187 164 196 165 197 156 188 156 188 155 187 164 196 165 197 160 192 157 189 157 189 156 188 165 197 160 192 162 194 157 189 166 198 171 199 167 200 167 200 168 201 169 202 166 198 167 200 169 202 170 203 166 198 169 202 172 204 177 205 173 206 173 206 174 207 175 208 172 204 173 206 175 208 176 209 172 204 175 208 178 210 179 211 180 212 180 212 181 213 182 214 178 210 180 212 182 214 178 210 182 214 183 215 184 216 185 217 186 218 186 218 187 219 188 220 184 216 186 218 188 220 184 216 188 220 181 221 188 222 187 223 183 224 183 224 182 225 188 222 187 223 186 226 178 227 178 227 183 224 187 223 186 226 185 228 179 229 179 229 178 227 186 226 185 228 184 230 180 231 180 231 179 229 185 228 181 232 180 231 184 230 189 233 190 234 191 235 191 235 192 236 189 233 193 237 194 238 195 239 195 239 196 240 193 237 194 238 197 241 198 242 198 242 195 239 194 238 197 241 199 243 200 244 200 244 198 242 197 241 199 243 201 245 202 246 202 246 200 244 199 243 203 247 204 248 205 249 205 249 206 250 203 247 207 251 208 252 209 253 209 253 210 254 207 251 210 254 209 253 211 255 211 255 212 256 210 254 212 256 211 255 213 257 213 257 214 258 212 256 214 258 213 257 215 259 215 259 216 260 214 258 217 261 218 262 204 248 204 248 203 247 217 261 218 263 205 264 204 265 218 263 219 266 209 267 209 267 208 268 218 263 219 266 211 269 209 267 219 266 213 270 211 269 219 266 215 271 213 270 219 272 220 273 216 274 216 274 215 275 219 272 220 276 214 277 216 278 220 276 212 279 214 277 220 276 210 280 212 279 220 276 217 281 207 282 207 282 210 280 220 276 217 281 203 283 206 284 190 234 193 237 196 240 196 240 191 235 190 234 205 249 208 252 207 251 207 251 206 250 205 249 218 263 208 268 205 264 217 281 206 284 207 282 217 285 220 286 221 287 221 287 222 288 217 285 220 289 219 290 223 291 223 291 221 292 220 289 219 293 218 294 224 295 224 295 223 296 219 293 218 297 217 298 222 299 222 299 224 300 218 297 222 301 190 302 189 303 222 301 193 304 190 302 222 301 221 305 194 306 194 306 193 304 222 301 221 305 197 307 194 306 221 305 199 308 197 307 221 305 201 309 199 308 221 310 223 311 202 312 202 312 201 313 221 310 223 314 200 315 202 316 223 314 198 317 200 315 223 314 195 318 198 317 223 314 224 319 196 320 196 320 195 318 223 314 224 319 191 321 196 320 224 319 192 322 191 321 224 323 222 324 189 325 189 325 192 326 224 323 225 327 226 328 227 329 227 329 228 330 225 327 226 328 229 331 230 332 230 332 227 329 226 328 229 333 231 334 232 335 232 335 230 336 229 333 231 334 233 337 234 338 234 338 232 335 231 334 233 337 235 339 236 340 236 340 234 338 233 337 235 339 225 327 228 330 228 330 236 340 235 339 233 341 231 342 229 343 229 343 226 344 225 345 233 341 229 343 225 345 235 346 233 341 225 345 227 347 230 348 232 349 232 349 234 350 236 351 227 347 232 349 236 351 228 352 227 347 236 351 237 353 242 354 238 355 238 355 239 356 240 357 237 353 238 355 240 357 241 358 237 353 240 357 243 359 244 360 245 361 245 361 246 362 243 359 244 360 247 363 248 364 248 364 245 361 244 360 247 365 249 366 250 367 250 367 248 368 247 365 249 366 251 369 252 370 252 370 250 367 249 366 251 369 253 371 254 372 254 372 252 370 251 369 253 371 243 359 246 362 246 362 254 372 253 371 251 373 249 374 247 375 247 375 244 376 243 377 251 373 247 375 243 377 253 378 251 373 243 377 245 379 248 380 250 381 250 381 252 382 254 383 245 379 250 381 254 383 246 384 245 379 254 383 255 385 256 386 257 387 257 387 258 388 259 389 255 385 257 387 259 389 260 390 255 385 259 389 262 392 263 393 264 394 264 394 261 391 262 392 265 395 267 397 268 398 266 396 265 395 268 398 268 398 269 399 270 400 266 396 268 398 270 400 270 401 269 402 268 403 266 396 270 401 268 403 268 403 267 404 265 395 266 396 268 403 265 395 277 412 271 405 272 406 272 406 278 413 277 412 277 412 273 407 271 405 279 414 274 408 273 407 273 407 277 412 279 414 280 415 275 409 274 410 274 410 279 416 280 415 280 415 276 411 275 409 278 413 272 406 276 411 276 411 280 415 278 413 281 417 277 412 278 413 278 413 282 418 281 417 277 412 281 417 283 419 284 420 279 414 277 412 277 412 283 419 284 420 285 421 280 415 279 416 279 416 284 422 285 421 280 415 285 421 286 423 282 418 278 413 280 415 280 415 286 423 282 418 287 424 281 417 282 418 282 418 288 425 287 424 287 424 283 419 281 417 289 426 284 420 283 419 283 419 287 424 289 426 290 427 285 421 284 422 284 422 289 428 290 427 290 427 286 423 285 421 288 425 282 418 286 423 286 423 290 427 288 425 291 429 287 424 288 425 288 425 292 430 291 429 287 424 291 429 293 431 294 432 289 426 287 424 287 424 293 431 294 432 295 433 290 427 289 428 289 428 294 434 295 433 290 427 295 433 296 435 292 430 288 425 290 427 290 427 296 435 292 430 297 436 291 429 292 430 298 437 293 431 291 429 291 429 297 436 298 437 298 437 294 432 293 431 299 438 295 433 294 434 294 434 298 439 299 438 299 438 296 435 295 433 297 436 292 430 296 435 296 435 299 438 297 436 271 405 300 440 301 441 301 441 272 406 271 405 300 440 271 405 273 407 274 408 302 442 300 440 300 440 273 407 274 408 275 409 303 443 302 444 302 444 274 410 275 409 276 411 301 441 303 443 303 443 275 409 276 411 301 441 276 411 272 406 304 445 315 468 305 446 305 446 306 447 304 445 307 448 310 458 308 449 308 449 316 460 307 448 304 450 306 451 309 452 304 450 309 452 310 458 310 458 307 448 311 453 304 450 310 458 311 453 312 454 304 450 311 453 309 455 313 456 314 457 314 457 310 458 309 455 305 446 315 459 316 460 316 460 308 449 314 461 305 446 316 460 314 461 313 462 305 446 314 461 315 463 312 464 311 465 311 465 316 466 315 463 304 445 312 467 315 468 305 446 313 469 309 470 309 470 306 447 305 446 314 457 308 449 310 458 311 465 307 448 316 460 300 440 302 442 303 443 300 440 303 443 301 441</p>
                </triangles>
            </mesh>
        </geometry>
    </library_geometries>
    <library_visual_scenes>
        <visual_scene id="RootNode" name="RootNode">
            <node id="NODE" name="Sketchfab_model">
                <node id="NODE0" name="Chest_FBX">
                    <matrix>1 0 0 0 0 0 -1 0 0 1 0 0 0 0 0 1</matrix>
                    <node id="NODE1" name="Object_2">
                        <node id="NODE2" name="RootNode">
                            <node id="NODE3" name="Object_4">
                                <node id="NODE4" name="Object_7">
                                    <instance_geometry url="#NODE4-lib">
                                        <bind_material>
                                            <technique_common>
                                                <instance_material symbol="MAT" target="#MAT" />
                                            </technique_common>
                                        </bind_material>
                                    </instance_geometry>
                                </node>
                            </node>
                        </node>
                    </node>
                </node>
            </node>
        </visual_scene>
    </library_visual_scenes>
    <scene>
        <instance_visual_scene url="#RootNode" />
    </scene>
</COLLADA>
