<?xml version="1.0" ?>
<COLLADA xmlns="http://www.collada.org/2005/11/COLLADASchema" version="1.4.1">
    <asset>
        <unit />
        <up_axis>Z_UP</up_axis>
    </asset>
    <library_materials>
        <material id="MAT" name="lambert7SG">
            <instance_effect url="#MAT-fx" />
        </material>
    </library_materials>
    <library_effects>
        <effect id="MAT-fx" name="lambert7SG">
            <profile_COMMON>
                <image id="IMAGE" height="0" width="0">
                    <init_from>textures/lambert7SG_diffuse.png</init_from>
                </image>
                <technique sid="standard">
                    <phong>
                        <emission>
                            <color>0 0 0 1</color>
                        </emission>
                        <ambient>
                            <color>0.117647 0.117647 0.117647 1</color>
                        </ambient>
                        <diffuse>
                            <texture texture="IMAGE" texcoord="" />
                        </diffuse>
                        <specular>
                            <color>1 1 1 1</color>
                        </specular>
                        <shininess>
                            <float>1</float>
                        </shininess>
                        <reflective>
                            <color>0 0 0 1</color>
                        </reflective>
                        <reflectivity>
                            <float>1</float>
                        </reflectivity>
                        <transparent>
                            <color>1 1 1 1</color>
                        </transparent>
                        <transparency>
                            <float>0</float>
                        </transparency>
                    </phong>
                </technique>
            </profile_COMMON>
        </effect>
    </library_effects>
    <library_geometries>
        <geometry id="NODE2-lib" name="NODE2Mesh">
            <mesh>
                <source id="NODE2-lib-positions">
                    <float_array id="NODE2-lib-positions-array" count="2262">16.5352 353.745 805.034 16.5352 361.135 842.589 0 383.681 839.289 0 376.075 800.639 22.2301 366.84 852.423 4.88838 388.812 848.918 31.6105 373.319 853.801 14.578 395.471 850.169 37.8871 409.72 844.181 51.9528 385.601 847.791 78.1384 429.367 837.8 89.5805 403.936 841.668 95.0663 436.537 840.582 107.921 411.431 843.295 105.172 441.41 845.255 129.006 421.85 854.321 108.29 457.781 848.206 148.017 430.6 872.4 118.135 469.706 860.764 130.641 470.202 875.57 152.511 439.101 882.891 149.658 451.412 885.507 143.345 461.155 883.524 490.827 353.745 805.034 507.362 376.075 800.639 507.362 383.681 839.289 490.827 361.135 842.589 502.474 388.812 848.918 485.132 366.84 852.423 492.784 395.471 850.169 475.752 373.319 853.801 469.475 409.72 844.181 455.409 385.601 847.791 429.224 429.367 837.8 417.782 403.936 841.668 412.296 436.537 840.582 399.441 411.431 843.295 402.19 441.41 845.255 378.356 421.85 854.321 399.072 457.781 848.206 389.227 469.706 860.764 359.345 430.6 872.4 376.721 470.202 875.57 354.851 439.101 882.891 364.017 461.155 883.524 357.704 451.412 885.507 253.681 456.95 784.723 298.794 454.63 785.18 295.854 427.179 790.582 253.681 429.348 790.155 343.413 447.696 786.545 337.565 420.697 791.858 387.049 436.224 788.802 378.356 409.973 793.968 429.224 420.339 791.928 417.782 395.124 796.891 469.475 400.216 795.888 455.409 376.312 800.593 211.508 427.179 790.582 208.568 454.63 785.18 169.798 420.697 791.858 163.949 447.696 786.545 129.006 409.973 793.968 120.313 436.224 788.802 89.5805 395.124 796.891 78.1384 420.339 791.928 51.9528 376.312 800.593 37.8871 400.216 795.888 30.5556 206.208 452.069 30.6527 165.427 452.069 33.5049 246.882 452.069 33.7924 126.283 452.069 39.708 89.1089 452.069 56.8758 55.4153 452.069 83.6153 28.6758 452.069 39.387 285.886 452.069 47.913 321.718 452.069 59.7923 348.032 452.069 79.1858 374.241 452.069 450.486 55.4153 452.069 467.654 89.1089 452.069 423.747 28.6758 452.069 473.57 126.283 452.069 476.709 165.427 452.069 476.806 206.208 452.069 473.857 246.882 452.069 467.975 285.886 452.069 459.449 321.718 452.069 447.57 348.032 452.069 428.176 374.241 452.069 117.309 11.5081 452.069 154.785 5.6134 452.069 204.237 1.40942 452.069 253.681 0 452.069 352.577 5.6134 452.069 390.053 11.5081 452.069 303.125 1.40942 452.069 402.077 397.649 452.069 105.285 397.649 452.069 370.275 415.282 452.069 333.992 425.914 452.069 294.623 432.031 452.069 253.681 434.551 452.069 173.37 425.914 452.069 137.087 415.282 452.069 212.739 432.031 452.069 30.5556 206.208 419.018 33.5049 246.882 419.018 30.6527 165.427 419.018 39.708 89.1089 419.018 33.7924 126.283 419.018 83.6153 28.6758 419.018 56.8758 55.4153 419.018 39.387 285.886 419.018 47.913 321.718 419.018 59.7923 348.032 419.018 79.1858 374.241 419.018 450.486 55.4153 419.018 423.747 28.6758 419.018 467.654 89.1089 419.018 473.57 126.283 419.018 476.709 165.427 419.018 473.857 246.882 419.018 476.806 206.208 419.018 459.449 321.718 419.018 467.975 285.886 419.018 428.176 374.241 419.018 447.57 348.032 419.018 117.309 11.5081 419.018 154.785 5.6134 419.018 204.237 1.40942 419.018 253.681 0 419.018 352.577 5.6134 419.018 390.053 11.5081 419.018 303.125 1.40942 419.018 402.077 397.649 419.018 105.285 397.649 419.018 370.275 415.282 419.018 333.992 425.914 419.018 294.623 432.031 419.018 253.681 434.551 419.018 173.37 425.914 419.018 137.087 415.282 419.018 212.739 432.031 419.018 32.7637 39.776 4.71436 44.7529 44.6293 1.54126 33.1774 15.4888 8.65393 27.969 27.7056 7.66052 56.9133 39.4225 0 45.3379 10.2823 7.11261 62.1217 27.2059 0.993408 57.327 15.1355 3.93958 445.24 27.2059 0.993408 450.449 39.4225 0 462.024 10.2823 7.11261 450.035 15.1355 3.93958 474.185 15.4888 8.65393 462.609 44.6293 1.54126 479.393 27.7056 7.66052 474.598 39.776 4.71436 253.681 467.839 840.053 298.794 465.519 840.51 343.413 458.585 841.875 387.049 447.113 844.132 208.568 465.519 840.51 163.949 458.585 841.875 120.313 447.113 844.132 295.854 442.808 869.998 232.596 443.892 869.784 277.225 489.166 856.934 318.028 476.958 844.432 230.425 480.926 843.651 230.427 486.573 872.348 300.191 485.377 872.584 231.126 474.665 880.865 248.203 463.385 883.151 275.027 451.034 880.543 347.343 480.718 858.596 183.305 484.336 857.884 210.992 449.937 880.759 161.17 472.581 845.294 403.076 79.4789 227.945 378.705 99.8889 351.494 393.04 106.026 353.311 417.457 85.634 229.759 407.172 100.305 357.052 431.634 79.8951 233.511 412.824 86.077 360.525 437.303 65.6227 236.996 406.685 71.6764 361.696 431.145 51.1769 238.172 392.35 65.539 359.879 416.765 45.0208 236.352 378.218 71.2599 356.138 402.588 50.7592 232.598 372.566 85.4879 352.666 396.919 65.0319 229.113 376.827 85.4509 422.615 367.743 96.3331 419.018 390.795 93.7798 423.997 382.952 107.571 420.163 371.448 105.023 418.311 432.001 67.0192 156.656 422.111 62.7845 155.402 441.751 63.0721 159.236 445.65 53.2559 161.632 441.414 43.3207 162.44 431.525 39.0863 161.187 421.775 43.0331 158.606 417.875 52.8494 156.21 436.398 70.3818 133.879 421.589 64.0411 132.002 450.998 64.4716 137.743 456.837 49.7723 141.331 450.494 34.8948 142.541 435.685 28.5544 140.664 421.085 34.4646 136.8 415.246 49.1636 133.212 437.319 50.8632 52.4136 104.286 79.4789 227.945 89.9045 85.634 229.759 114.322 106.026 353.311 128.657 99.8889 351.494 75.7279 79.8952 233.511 100.19 100.305 357.052 70.0586 65.6227 236.996 94.5378 86.077 360.525 76.2174 51.1769 238.171 100.677 71.6764 361.696 90.5972 45.0208 236.352 115.012 65.539 359.879 104.774 50.7593 232.598 129.144 71.2599 356.138 110.443 65.032 229.114 134.796 85.4879 352.666 139.619 96.3331 419.018 130.535 85.4509 422.615 119.031 87.9988 424.467 117.595 102.4 422.366 134.471 105.641 418.494 85.2507 62.7845 155.402 75.3613 67.0192 156.656 65.6111 63.0721 159.236 61.7118 53.2559 161.632 65.9475 43.3207 162.44 75.8371 39.0863 161.187 85.5872 43.0331 158.606 89.4865 52.8494 156.21 85.773 64.0411 132.002 70.9641 70.3818 133.879 56.3639 64.4716 137.743 50.5249 49.7723 141.331 56.8676 34.8948 142.541 71.6766 28.5544 140.664 86.2768 34.4646 136.8 92.1157 49.1636 133.212 70.0432 50.8632 52.4136 420.019 388.014 258.03 405.426 393.704 256.944 382.739 359.009 380.11 397.331 353.32 381.195 391.498 387.813 252.72 368.814 353.119 375.886 386.395 373.793 247.83 363.712 339.1 370.997 393.104 359.852 245.151 370.422 325.165 368.308 407.699 354.165 246.227 385.013 319.476 369.393 421.627 360.057 250.449 398.938 325.366 373.617 426.73 374.077 255.34 404.041 339.384 378.506 383.008 324.28 440.978 375.694 310.642 435.789 364.077 312.885 434.281 360.028 321.293 435.904 368.697 332.117 440.549 427.899 402.081 190.585 417.833 406.006 189.836 408.226 401.943 186.922 404.706 392.271 183.549 409.335 382.657 181.694 419.401 378.732 182.443 429.009 382.796 185.357 432.529 392.467 188.729 436.42 412.881 171.606 421.346 418.758 170.485 406.959 412.673 166.121 401.688 398.191 161.071 408.62 383.794 158.293 423.695 377.917 159.414 438.081 384.002 163.778 443.352 398.485 168.828 422.969 405.736 80.3946 457.901 446.932 40.2948 445.523 451.758 39.3742 433.71 446.761 35.7908 429.381 434.869 31.6439 435.073 423.047 29.3624 447.452 418.221 30.283 459.265 423.217 33.8663 463.593 435.11 38.0134 87.3431 388.014 258.03 110.031 353.32 381.195 124.623 359.009 380.11 101.936 393.704 256.944 138.548 353.119 375.886 115.864 387.813 252.72 143.65 339.1 370.997 120.967 373.793 247.83 136.94 325.165 368.308 114.258 359.852 245.151 122.349 319.476 369.393 99.6625 354.165 246.227 108.424 325.366 373.617 85.7348 360.057 250.449 103.321 339.384 378.506 80.6323 374.077 255.341 131.668 310.642 435.789 124.354 324.28 440.978 143.285 312.885 434.281 147.334 321.293 435.904 138.665 332.117 440.549 89.5291 406.006 189.836 79.4625 402.081 190.585 99.1364 401.943 186.922 102.656 392.271 183.549 98.0272 382.657 181.694 87.9605 378.732 182.443 78.3533 382.796 185.357 74.8333 392.467 188.729 86.0163 418.758 170.485 70.9421 412.881 171.606 100.403 412.673 166.121 105.674 398.191 161.071 98.7416 383.794 158.293 83.6673 377.917 159.414 69.2812 384.002 163.778 64.0102 398.485 168.828 84.3933 405.736 80.3946 61.839 451.758 39.3742 49.4607 446.932 40.2948 73.6524 446.761 35.7908 77.9808 434.869 31.6439 72.2885 423.047 29.3624 59.9102 418.221 30.283 48.0968 423.217 33.8663 43.7685 435.11 38.0134 421.243 356.449 560.986 430.65 360.056 558.867 439.997 355.863 557.854 443.81 346.324 558.54 439.854 337.028 560.522 430.447 333.42 562.64 421.099 337.613 563.652 417.287 347.152 562.967 450.657 366.777 729.115 460.384 358.077 737.386 467.48 366.416 726.284 462.527 378.471 725.44 452.146 377.312 727.381 430.006 351.705 535.159 419.576 350.587 537.102 434.824 339.644 536.026 426.393 333.531 538.328 418.057 340.171 538.824 422.02 353.179 508.45 412.475 349.518 510.592 431.503 348.924 507.421 435.371 339.246 508.117 431.358 329.815 510.127 421.814 326.155 512.276 412.331 330.41 513.303 408.463 340.087 512.608 415.738 338.418 446.101 404.11 336.73 448.33 418.808 326.191 447.291 406.707 323.393 449.756 451.164 381.322 736.801 460.768 385.005 734.649 470.315 380.728 733.648 474.2 370.985 734.296 470.161 361.495 736.319 451.016 362.093 739.515 447.124 371.83 738.815 467.428 387.185 803.532 478.578 384.345 800.981 475.942 374.096 803.911 465.545 377.164 805.261 352.85 395.307 559.612 362.332 399.002 558.051 371.774 394.911 557.708 375.646 385.432 558.787 371.678 376.117 560.651 362.196 372.422 562.213 352.754 376.512 562.556 348.883 385.991 561.479 371.361 408.705 730.644 383.386 403.633 730.186 389.774 411.894 728.233 386.898 418.938 727.433 376.276 420.572 728.281 363.325 390.302 534.521 352.805 389.081 535.804 369.687 381.768 535.192 363.235 373.5 537.152 351.299 378.674 537.585 357.017 391.201 506.85 347.403 387.455 508.433 366.591 387.054 506.502 370.516 377.441 507.588 366.493 367.997 509.487 356.879 364.25 511.07 347.305 368.398 511.417 343.38 378.009 510.325 355.25 375.902 447.305 343.049 372.987 449.028 359.324 365.952 448.435 346.178 360.82 450.601 371.23 423.389 738.324 380.9 427.157 736.732 390.53 422.986 736.382 394.478 413.32 737.493 390.431 403.818 739.384 380.761 400.05 740.977 371.132 404.221 741.326 367.184 413.888 740.227 382.694 428.843 793.123 393.985 423.936 792.716 390.376 415.503 794.407 379.881 418.463 795.035 281.875 410.147 559.538 291.393 413.93 558.489 300.882 409.948 558.777 304.785 400.533 560.234 300.815 391.2 562.004 291.297 387.417 563.053 281.807 391.4 562.765 277.905 400.815 561.309 289.878 426.11 729.836 301.965 421.174 730.179 308.367 429.48 728.483 305.468 436.477 727.401 294.797 437.997 727.586 293.891 404.885 535.167 283.326 403.559 535.838 300.293 396.438 536.352 293.826 388.125 538.053 281.83 393.163 537.688 289.247 405.294 507.159 279.596 401.458 508.221 298.869 401.255 507.45 302.826 391.707 508.919 298.8 382.245 510.721 289.149 378.409 511.784 279.527 382.448 511.494 275.57 391.994 510.017 291.226 389.081 447.862 278.976 386.048 448.896 295.333 379.198 449.39 282.138 373.943 450.846 289.15 440.954 737.605 298.847 444.808 736.536 308.516 440.75 736.83 312.492 431.16 738.329 308.447 421.65 740.118 298.75 417.795 741.186 289.081 421.853 740.893 285.105 431.445 739.41 297.052 446.626 788.525 308.399 441.842 788.872 304.783 433.395 790.476 294.239 436.244 790.428 86.119 356.449 560.986 76.7122 360.056 558.867 67.3645 355.863 557.854 63.5518 346.324 558.54 67.5076 337.028 560.522 76.9145 333.42 562.64 86.2624 337.613 563.652 90.0751 347.152 562.967 56.7053 366.777 729.115 46.9779 358.077 737.386 39.8821 366.416 726.284 44.8347 378.471 725.44 55.2158 377.312 727.381 87.786 350.587 537.102 77.3557 351.705 535.159 72.5379 339.644 536.026 80.9689 333.531 538.328 89.3046 340.171 538.824 94.8869 349.518 510.592 85.3421 353.179 508.45 75.8587 348.924 507.421 71.9905 339.246 508.117 76.0039 329.815 510.127 85.5476 326.155 512.276 95.0313 330.41 513.303 98.8994 340.087 512.608 103.252 336.73 448.33 91.6239 338.418 446.101 88.5542 326.191 447.291 100.655 323.393 449.756 46.5936 385.005 734.649 56.198 381.322 736.801 37.0469 380.728 733.648 33.1623 370.985 734.296 37.2005 361.495 736.319 56.3459 362.093 739.515 60.2381 371.831 738.815 39.9338 387.185 803.532 28.7838 384.345 800.981 31.4198 374.096 803.911 41.8168 377.164 805.261 192.696 239.948 94.4681 203.58 228.884 92.4372 129.082 229.1 89.1226 129.082 239.948 94.4681 205.176 219.281 94.8727 129.082 217.65 93.0135 192.696 212.304 103.861 129.082 212.304 103.861 202.524 218.449 113.334 129.082 216.195 115.312 205.176 227.204 118.189 129.082 227.043 120.657 205.176 236.862 114.907 129.082 238.494 116.767 202.524 240.846 105.723 129.082 243.839 105.919 79.3848 228.74 94.6522 79.3848 236.628 100.61 79.3848 218.995 101.866 79.3848 220.36 111.657 79.3848 232.352 113.447 206.66 237.426 96.6815 207.828 215.297 104.057 217.656 229.1 89.1226 289.036 239.948 94.4681 298.845 228.905 92.1098 289.036 217.65 93.0135 298.863 215.297 104.057 217.656 216.195 115.312 289.036 216.195 115.312 301.516 227.204 118.189 301.516 236.862 114.907 217.656 243.839 105.919 301.856 241.121 105.741 313.996 229.1 89.1226 303.616 237.567 96.5573 377.609 239.948 94.4681 377.609 229.1 89.1226 304.168 219.628 95.2678 377.609 217.65 93.0135 313.996 212.304 103.861 377.609 212.304 103.861 304.168 218.449 113.334 377.609 216.195 115.312 377.609 227.043 120.657 377.609 238.494 116.767 377.609 243.839 105.919 427.307 236.628 100.61 427.307 228.74 94.6522 427.307 218.995 101.866 427.307 220.36 111.657 427.307 232.352 113.447 67.4925 280.893 95.5031 69.8933 351.994 97.1441 81.0497 351.316 101.762 76.8137 277.691 98.7056 57.9766 278.327 98.7056 58.7165 352.07 101.762 54.0546 277.846 108.109 54.0666 351.499 112.911 56.6035 289.492 120.071 58.6674 350.616 124.061 67.4356 279.208 121.057 69.8239 349.938 128.679 76.4909 279.147 117.315 81.0006 349.862 124.061 80.6943 276.946 108.109 85.6505 350.433 112.911 71.5234 400.27 105.848 79.7667 399.638 111.269 62.2571 400.073 113.664 64.2343 399.375 123.325 76.3077 398.902 124.328 58.2182 274.467 116.97 66.9889 265.978 91.5297 73.5694 181.611 92.4342 64.2483 184.812 89.2317 54.7323 182.247 92.4342 51.425 184.393 102.011 55.1525 183.677 111.044 66.9195 263.922 123.064 64.1009 180.448 115.137 78.0962 263.845 118.446 75.6925 192.658 113.8 77.45 180.865 101.838 63.7447 169.897 85.2583 72.8372 108.095 85.8869 61.6808 108.773 81.2687 50.504 108.849 85.8869 47.918 169.402 101.026 45.8541 108.279 97.0361 52.5188 168.519 112.175 50.4549 107.396 108.185 61.6114 106.717 112.803 73.068 177.776 110.699 72.7881 106.642 108.185 77.438 107.212 97.0361 68.112 54.4939 88.7391 59.8693 55.126 83.3201 50.6024 54.9287 91.1376 52.5803 54.2313 100.797 64.6551 53.7582 101.8 439.869 280.893 95.5031 430.548 277.691 98.7056 426.312 351.316 101.762 437.469 351.994 97.1441 449.385 278.327 98.7056 448.645 352.07 101.762 453.307 277.846 108.109 453.295 351.499 112.911 450.758 289.492 120.071 448.695 350.616 124.061 439.926 279.208 121.057 437.538 349.938 128.679 430.871 279.147 117.315 426.361 349.862 124.061 426.668 276.946 108.109 421.711 350.433 112.911 427.595 399.638 111.269 435.839 400.27 105.848 445.105 400.073 113.664 443.128 399.375 123.325 431.054 398.902 124.328 449.144 274.467 116.97 440.373 265.978 91.5297 443.114 184.812 89.2317 434.075 184.244 92.9778 452.63 182.247 92.4342 456.552 181.765 101.838 452.209 183.677 111.044 440.442 263.922 123.064 443.261 180.448 115.137 429.266 263.845 118.446 434.115 183.066 111.044 429.912 180.866 101.838 443.617 169.897 85.2583 445.681 108.773 81.2687 434.525 108.095 85.8869 432.461 169.219 89.8765 456.858 108.849 85.8869 461.508 108.279 97.0361 454.843 168.519 112.175 456.907 107.396 108.185 445.751 106.717 112.803 432.51 167.765 112.175 434.574 106.642 108.185 429.924 107.212 97.0361 447.444 56.5565 83.4135 439.201 55.9244 88.8329 456.711 56.3592 91.2305 454.733 55.6617 100.891 442.659 55.1887 101.893 154.512 395.307 559.614 145.03 399.002 558.051 135.588 394.911 557.708 131.716 385.432 558.785 135.684 376.117 560.651 145.166 372.422 562.213 154.608 376.512 562.556 158.479 385.991 561.479 136.001 408.705 730.644 123.976 403.633 730.186 117.588 411.894 728.233 124.055 420.493 727.563 134.525 419.231 728.848 154.557 389.081 535.804 144.036 390.302 534.521 139.145 378.317 535.883 147.636 372.133 537.73 156.063 378.674 537.585 159.96 387.454 508.427 150.345 391.201 506.85 140.771 387.054 506.502 136.846 377.442 507.595 140.869 367.997 509.487 150.483 364.25 511.07 160.057 368.398 511.417 163.982 378.009 510.325 163.839 374.1 448.805 152.112 375.902 447.305 148.983 363.734 448.879 161.184 360.82 450.601 126.462 427.157 736.732 136.13 423.39 738.336 116.832 422.986 736.382 112.884 413.318 737.481 116.931 403.818 739.384 126.601 400.05 740.977 136.23 404.221 741.326 140.178 413.888 740.227 118.837 429.513 792.413 126.623 428.081 793.445 112.587 422.001 792.936 116.986 415.503 794.407 127.481 418.463 795.035 225.487 410.147 559.538 215.969 413.93 558.489 206.479 409.948 558.778 202.577 400.532 560.232 206.547 391.2 562.004 216.065 387.417 563.053 225.554 391.4 562.765 229.457 400.815 561.309 217.484 426.11 729.836 205.397 421.174 730.179 198.994 429.48 728.483 201.894 436.477 727.401 212.565 437.997 727.586 220.509 404.961 535.449 209.959 403.411 535.274 208.54 392.981 537.008 217.058 386.725 538.441 225.532 393.163 537.688 227.766 401.458 508.221 218.115 405.294 507.159 208.493 401.254 507.444 204.536 391.708 508.926 208.562 382.245 510.721 218.213 378.409 511.784 227.835 382.448 511.494 231.792 391.994 510.017 222.916 390.072 447.975 213.873 388.131 447.931 212.974 376.976 449.811 225.224 373.943 450.846 230.273 381.613 449.738 208.515 444.808 736.536 218.211 440.954 737.605 198.846 440.753 736.845 194.87 431.158 738.313 198.915 421.65 740.118 208.612 417.795 741.186 218.281 421.853 740.893 222.257 431.445 739.41 210.31 446.626 788.525 200.571 445.721 788.273 198.988 437.996 789.535 206.474 431.847 790.906 213.123 436.244 790.428</float_array>
                    <technique_common>
                        <accessor count="754" source="#NODE2-lib-positions-array" stride="3">
                            <param name="X" type="float" />
                            <param name="Y" type="float" />
                            <param name="Z" type="float" />
                        </accessor>
                    </technique_common>
                </source>
                <source id="NODE2-lib-uv">
                    <float_array id="NODE2-lib-uv-array" count="2082">0.439122 0.234255 0.475342 0.234255 0.475342 0.210673 0.439122 0.210673 0.486718 0.234255 0.486718 0.210673 0.497476 0.234255 0.497476 0.210673 0.520812 0.210673 0.520812 0.234255 0.559052 0.210673 0.559052 0.234255 0.575173 0.210673 0.575173 0.234255 0.584237 0.210673 0.597872 0.234255 0.592061 0.199163 0.621672 0.234255 0.607328 0.193214 0.623127 0.196535 0.63316 0.229241 0.635584 0.21706 0.632989 0.207647 0.632386 0.311169 0.632386 0.287154 0.596585 0.287154 0.596585 0.311169 0.585188 0.287154 0.585188 0.311169 0.574412 0.287154 0.574412 0.311169 0.551037 0.287154 0.551037 0.311169 0.512794 0.287154 0.512794 0.311169 0.496688 0.287154 0.496688 0.311169 0.487491 0.287154 0.474127 0.311169 0.479531 0.275735 0.464198 0.269962 0.450331 0.311169 0.448438 0.273469 0.438785 0.306289 0.438705 0.284692 0.43622 0.294137 0.740222 0.046193 0.778854 0.046193 0.778854 0.021552 0.740222 0.021552 0.817466 0.046193 0.817466 0.021552 0.856088 0.046193 0.856088 0.021552 0.894662 0.046193 0.894662 0.021552 0.933042 0.046193 0.933042 0.021552 0.97094 0.046193 0.97094 0.021552 0.701579 0.021552 0.701579 0.046193 0.662969 0.021552 0.662969 0.046193 0.624347 0.021552 0.624347 0.046193 0.585773 0.021552 0.585773 0.046193 0.547393 0.021552 0.547393 0.046193 0.509495 0.021552 0.509495 0.046193 0.187572 0.40647 0.151684 0.406556 0.223367 0.409065 0.117235 0.409319 0.084521 0.414524 0.054869 0.429633 0.031338 0.453165 0.257692 0.414242 0.289225 0.421745 0.312383 0.432199 0.335447 0.449266 0.054869 0.776024 0.084521 0.791132 0.031338 0.752492 0.117235 0.796338 0.151684 0.799101 0.187572 0.799186 0.223367 0.796591 0.257692 0.791415 0.289225 0.783912 0.312383 0.773457 0.335447 0.75639 0.01623 0.482816 0.011042 0.515796 0.007342 0.559316 0.006102 0.602828 0.011042 0.68986 0.01623 0.72284 0.007342 0.646341 0.356047 0.733422 0.356047 0.472235 0.371565 0.705435 0.380922 0.673505 0.386304 0.638859 0.388522 0.602828 0.380922 0.532152 0.371565 0.500222 0.386304 0.566798 0.598856 0.40647 0.563061 0.409065 0.634745 0.406555 0.701907 0.414524 0.669193 0.409318 0.755091 0.453164 0.731559 0.429633 0.528736 0.414242 0.497203 0.421745 0.474045 0.432199 0.45098 0.449266 0.731559 0.776024 0.755091 0.752492 0.701907 0.791132 0.669193 0.796338 0.634745 0.799101 0.563061 0.796591 0.598856 0.799187 0.497203 0.783912 0.528736 0.791415 0.45098 0.75639 0.474045 0.773457 0.770199 0.482816 0.775387 0.515796 0.779086 0.559315 0.780327 0.602828 0.775387 0.68986 0.770199 0.722841 0.779086 0.646341 0.430381 0.733422 0.430381 0.472234 0.414863 0.705435 0.405506 0.673505 0.400124 0.638859 0.397905 0.602828 0.405506 0.532152 0.414863 0.500221 0.400124 0.566798 0.432659 0.449473 0.436999 0.438752 0.410941 0.449103 0.421866 0.453761 0.432343 0.427878 0.406286 0.438229 0.421419 0.423221 0.410626 0.427508 0.397516 0.485372 0.408441 0.480714 0.382382 0.470363 0.386722 0.481084 0.387038 0.459488 0.413096 0.46984 0.397963 0.454831 0.408757 0.459118 0.735924 0.114616 0.773872 0.114616 0.773872 0.063203 0.735924 0.063203 0.81297 0.114616 0.81297 0.063203 0.853595 0.114616 0.853595 0.063203 0.868149 0.114616 0.878227 0.109872 0.895438 0.106364 0.895438 0.063203 0.937799 0.108839 0.937799 0.063203 0.979355 0.09975 0.9798 0.063203 0.963578 0.111875 0.973915 0.109508 0.697784 0.063203 0.697784 0.114616 0.659888 0.063203 0.659888 0.114616 0.621288 0.063203 0.621288 0.114616 0.597662 0.107357 0.607147 0.114616 0.581704 0.063203 0.581704 0.103956 0.541923 0.063203 0.541923 0.106293 0.50219 0.063203 0.50219 0.097804 0.507483 0.106872 0.51759 0.109278 0.742842 0.124527 0.704658 0.124527 0.704658 0.198008 0.761941 0.198008 0.72375 0.252857 0.689881 0.265119 0.761943 0.265119 0.761942 0.241024 0.704658 0.241024 0.761941 0.2294 0.704658 0.277217 0.742842 0.277217 0.747609 0.220015 0.723749 0.209 0.666548 0.124526 0.666548 0.252857 0.666548 0.277217 0.630275 0.277217 0.626822 0.124526 0.587088 0.124526 0.587088 0.167125 0.605823 0.170021 0.626822 0.1818 0.646645 0.198008 0.652706 0.209 0.653159 0.220015 0.650381 0.2294 0.643072 0.241024 0.633867 0.252857 0.623224 0.265119 0.617076 0.277217 0.547336 0.124526 0.547336 0.169516 0.507955 0.124526 0.507972 0.160264 0.514211 0.170219 0.524555 0.172723 0.781042 0.124527 0.800095 0.252857 0.781042 0.277217 0.781042 0.209 0.819147 0.124527 0.819147 0.265119 0.819147 0.277217 0.855411 0.277217 0.85887 0.124527 0.879869 0.170022 0.898603 0.167125 0.898603 0.124527 0.839051 0.198008 0.85887 0.1818 0.832987 0.209 0.832534 0.220015 0.835311 0.2294 0.842622 0.241024 0.851826 0.252857 0.862466 0.265119 0.868613 0.277217 0.938355 0.169518 0.938355 0.124527 0.977723 0.160268 0.977741 0.124527 0.961137 0.172725 0.971482 0.170223 0.346871 0.366154 0.346871 0.395171 0.391401 0.395171 0.391401 0.366154 0.436092 0.395171 0.436092 0.366154 0.186286 0.366154 0.186286 0.395171 0.219672 0.395171 0.219672 0.366154 0.251532 0.395171 0.251532 0.366154 0.282098 0.395171 0.282098 0.366154 0.313742 0.395171 0.313742 0.366154 0.648512 0.359513 0.648512 0.329679 0.613193 0.329679 0.613193 0.359513 0.578679 0.329679 0.578679 0.359513 0.545969 0.329679 0.545969 0.359513 0.514801 0.329679 0.514801 0.359513 0.485229 0.329679 0.485229 0.359513 0.457464 0.329679 0.457464 0.359513 0.432656 0.329679 0.432656 0.359513 0.008117 0.366154 0.008117 0.395171 0.039135 0.395171 0.039135 0.366154 0.073476 0.395171 0.073476 0.366154 0.110383 0.395171 0.110383 0.366154 0.148788 0.395171 0.148788 0.366154 0.525371 0.366154 0.480766 0.366154 0.480766 0.395171 0.525371 0.395171 0.688988 0.366154 0.656073 0.366154 0.656073 0.395171 0.688988 0.395171 0.62352 0.366154 0.62352 0.395171 0.591462 0.366154 0.591462 0.395171 0.558796 0.366154 0.558796 0.395171 0.683832 0.359513 0.683832 0.329679 0.718347 0.359513 0.718347 0.329679 0.751061 0.359513 0.751061 0.329679 0.782222 0.359513 0.782222 0.329679 0.811721 0.359513 0.811721 0.329679 0.839389 0.359513 0.839389 0.329679 0.864339 0.359513 0.864339 0.329679 0.864198 0.366154 0.832488 0.366154 0.832488 0.395171 0.864198 0.395171 0.797437 0.366154 0.797437 0.395171 0.760878 0.366154 0.760878 0.395171 0.724044 0.366154 0.724044 0.395171 0.887858 0.374316 0.887858 0.502786 0.901211 0.502786 0.901211 0.374308 0.914362 0.502786 0.914362 0.374308 0.92739 0.502786 0.92739 0.374309 0.94032 0.502786 0.94032 0.37431 0.951017 0.502786 0.951017 0.374313 0.964109 0.502786 0.964109 0.374311 0.977271 0.502786 0.977271 0.37431 0.990541 0.502786 0.990541 0.374316 0.955399 0.569603 0.977271 0.569603 0.931718 0.569603 0.905613 0.569603 0.887858 0.569603 0.990541 0.569603 0.901211 0.297543 0.887858 0.297543 0.914362 0.297543 0.92739 0.297543 0.94032 0.297543 0.951017 0.297543 0.964109 0.297543 0.977271 0.297543 0.990541 0.297543 0.901211 0.278931 0.887858 0.278931 0.914362 0.278931 0.92739 0.278931 0.94032 0.278931 0.951017 0.278931 0.964109 0.278931 0.977271 0.278931 0.990541 0.278931 0.887858 0.221213 0.990541 0.221213 0.901211 0.182207 0.887858 0.182207 0.914362 0.182207 0.92739 0.182207 0.94032 0.182207 0.951017 0.182207 0.964109 0.182207 0.977271 0.182207 0.990541 0.182207 0.990541 0.789597 0.977042 0.789588 0.977042 0.919908 0.990541 0.919908 0.963669 0.789588 0.963669 0.919908 0.950429 0.78959 0.950429 0.919908 0.938033 0.78959 0.938033 0.919908 0.926529 0.789593 0.926529 0.919908 0.914005 0.789592 0.914005 0.919908 0.901003 0.789591 0.901003 0.919908 0.887814 0.789597 0.887814 0.919908 0.901003 0.987622 0.922337 0.987622 0.938033 0.987622 0.959237 0.987622 0.988288 0.987622 0.887814 0.987622 0.990541 0.713263 0.977042 0.713263 0.963669 0.713263 0.950429 0.713263 0.938033 0.713263 0.926529 0.713263 0.914005 0.713263 0.901003 0.713263 0.887814 0.713263 0.990541 0.694672 0.977042 0.694672 0.963669 0.694672 0.950429 0.694672 0.938033 0.694672 0.926529 0.694672 0.914005 0.694672 0.901003 0.694672 0.887814 0.694672 0.990541 0.638355 0.887814 0.638355 0.990541 0.600393 0.977042 0.600393 0.963669 0.600393 0.950429 0.600393 0.938033 0.600393 0.926529 0.600393 0.914005 0.600393 0.901003 0.600393 0.887814 0.600393 0.210075 0.860133 0.210077 0.848599 0.075834 0.848599 0.075834 0.860133 0.210076 0.835986 0.075834 0.835986 0.210076 0.822902 0.075834 0.822902 0.210065 0.809536 0.075834 0.809536 0.210065 0.908761 0.210076 0.895748 0.075834 0.895748 0.075834 0.908761 0.210077 0.882916 0.075834 0.882916 0.210076 0.870409 0.075834 0.870409 0.009775 0.866969 0.009775 0.891453 0.009775 0.908761 0.009775 0.809536 0.009775 0.822902 0.009775 0.844377 0.281882 0.860133 0.281882 0.848599 0.281882 0.835986 0.281882 0.822902 0.281882 0.809536 0.281882 0.908761 0.281882 0.895748 0.281882 0.882916 0.281882 0.870409 0.301936 0.860133 0.301936 0.848599 0.301936 0.835986 0.301936 0.822902 0.301936 0.809536 0.301936 0.908761 0.301936 0.895748 0.301936 0.882916 0.301936 0.870409 0.364245 0.809536 0.364245 0.908761 0.406473 0.860133 0.406473 0.848599 0.406473 0.835986 0.406473 0.822902 0.406473 0.809536 0.406473 0.908761 0.406473 0.895748 0.406473 0.882916 0.406473 0.870409 0.357742 0.435713 0.352597 0.446398 0.379608 0.435866 0.36893 0.431351 0.38352 0.446616 0.356509 0.457147 0.367187 0.461663 0.378375 0.457301 0.63407 0.858151 0.499794 0.858151 0.499794 0.869687 0.634071 0.869687 0.499794 0.8823 0.634071 0.8823 0.499794 0.895394 0.634071 0.895394 0.499794 0.908763 0.63406 0.908763 0.63406 0.809536 0.499794 0.809536 0.499794 0.822552 0.63407 0.822552 0.499794 0.835372 0.634072 0.835372 0.499794 0.847878 0.63407 0.847878 0.433722 0.826843 0.433722 0.851316 0.433722 0.809536 0.433722 0.895394 0.433722 0.908763 0.433722 0.873909 0.705891 0.869687 0.705891 0.858151 0.705891 0.8823 0.705891 0.895394 0.705891 0.908763 0.705891 0.822552 0.705891 0.809536 0.705891 0.835372 0.705891 0.847878 0.725943 0.869687 0.725943 0.858151 0.725943 0.8823 0.725943 0.895394 0.725943 0.908763 0.725943 0.822552 0.725943 0.809536 0.725943 0.835372 0.725943 0.847878 0.788223 0.908763 0.788223 0.809536 0.830413 0.869687 0.830413 0.858151 0.830413 0.8823 0.830413 0.895394 0.830413 0.908763 0.830413 0.822552 0.830413 0.809536 0.830413 0.835372 0.830413 0.847878 0.40134 0.406079 0.390152 0.401717 0.379475 0.406232 0.406485 0.416763 0.375563 0.416981 0.402573 0.427512 0.380708 0.427666 0.391895 0.432028 0.069605 0.248781 0.061962 0.248782 0.05454 0.248783 0.047011 0.248783 0.039082 0.248783 0.032096 0.248782 0.024762 0.248783 0.017304 0.248783 0.009758 0.248781 0.0211208 0.07447 0.032096 0.0664807 0.0431397 0.07447 0.0583384 0.07447 0.069605 0.07447 0.009758 0.07447 0.058249 0.273949 0.069605 0.273949 0.0430445 0.273949 0.032096 0.273949 0.021031 0.273949 0.009758 0.273949 0.061962 0.300995 0.069605 0.301001 0.05454 0.300996 0.047011 0.300996 0.039082 0.300997 0.032096 0.300996 0.024762 0.300996 0.017304 0.300996 0.009758 0.301001 0.0570193 0.356189 0.069605 0.356189 0.0417308 0.356189 0.0272119 0.356189 0.0110166 0.356189 0.069605 0.0654778 0.061962 0.0654714 0.05454 0.0654498 0.047011 0.0654842 0.039082 0.0654842 0.024762 0.0654842 0.017304 0.0654843 0.009758 0.0654778 0.0682726 0.00740302 0.052037 0.00740302 0.0367459 0.00740302 0.0222681 0.00740302 0.009758 0.00740302 0.102611 0.248822 0.095579 0.248822 0.088328 0.248822 0.080906 0.24882 0.140676 0.24882 0.133082 0.248822 0.125639 0.248822 0.11798 0.248822 0.10969 0.248822 0.113933 0.07447 0.129448 0.07447 0.140676 0.07447 0.088328 0.07447 0.080906 0.07447 0.0991778 0.07447 0.0919516 0.273949 0.102611 0.273949 0.080906 0.273949 0.129358 0.273949 0.140676 0.273949 0.113833 0.273949 0.095579 0.301444 0.102611 0.301445 0.088328 0.301445 0.080906 0.301451 0.133082 0.301444 0.140676 0.301451 0.125639 0.301445 0.11798 0.301445 0.10969 0.301445 0.0907508 0.356189 0.104976 0.356189 0.080906 0.356189 0.138152 0.356189 0.120539 0.356189 0.102611 0.0652357 0.095579 0.0652359 0.088328 0.0652358 0.080906 0.0652264 0.140676 0.0652264 0.133082 0.0652359 0.125639 0.0652357 0.11798 0.0652358 0.10969 0.0652359 0.100256 0.00740302 0.0833663 0.00740302 0.140676 0.00740302 0.130589 0.00740302 0.115203 0.00740302 0.174104 0.248789 0.166855 0.248789 0.159401 0.248789 0.151977 0.248787 0.211789 0.248787 0.204229 0.248789 0.196766 0.248789 0.189288 0.248789 0.181243 0.248789 0.18536 0.07447 0.200585 0.07447 0.211789 0.07447 0.159401 0.07447 0.151977 0.07447 0.170565 0.07447 0.163126 0.273949 0.174104 0.273949 0.151977 0.273949 0.200495 0.273949 0.211789 0.273949 0.185263 0.273949 0.166855 0.301444 0.174104 0.301445 0.159401 0.301444 0.151977 0.301451 0.204229 0.301446 0.211789 0.301451 0.196766 0.301446 0.189288 0.301444 0.181243 0.301445 0.161892 0.356189 0.17649 0.356189 0.151977 0.356189 0.209276 0.356189 0.191787 0.356189 0.174104 0.064968 0.166855 0.0649683 0.159401 0.0649683 0.151977 0.0649559 0.211789 0.0649559 0.204229 0.0649681 0.196766 0.0649684 0.189288 0.0649682 0.181243 0.0649682 0.171673 0.00740302 0.154434 0.00740302 0.211789 0.00740302 0.201726 0.00740302 0.18659 0.00740302 0.360405 0.248781 0.367931 0.248782 0.375267 0.248783 0.382772 0.248783 0.390008 0.248783 0.397651 0.248782 0.405085 0.248783 0.412521 0.248783 0.419955 0.248781 0.408716 0.07447 0.397651 0.0664807 0.386305 0.07447 0.371513 0.07447 0.360405 0.07447 0.419955 0.07447 0.360405 0.273949 0.371601 0.273949 0.386392 0.273949 0.397651 0.273949 0.408805 0.273949 0.419955 0.273949 0.360405 0.301001 0.367931 0.300995 0.375267 0.300996 0.382772 0.300996 0.390008 0.300997 0.397651 0.300996 0.405085 0.300996 0.412521 0.300996 0.419955 0.301001 0.360405 0.356189 0.372816 0.356189 0.387591 0.356189 0.402602 0.356189 0.418714 0.356189 0.367931 0.0654714 0.360405 0.0654778 0.375267 0.0654498 0.382772 0.0654842 0.390008 0.0654842 0.405085 0.0654842 0.412521 0.0654842 0.419955 0.0654778 0.361717 0.00740302 0.377762 0.00740302 0.392564 0.00740302 0.407571 0.00740302 0.419955 0.00740302 0.861121 0.551877 0.870571 0.563696 0.870571 0.493319 0.861121 0.493319 0.796113 0.493319 0.796113 0.563696 0.805518 0.56544 0.805518 0.493319 0.814861 0.551877 0.814861 0.493319 0.824173 0.562549 0.824173 0.493319 0.833449 0.56544 0.833449 0.493319 0.842303 0.56544 0.842303 0.493319 0.851674 0.562549 0.851674 0.493319 0.870571 0.447231 0.857961 0.447231 0.811736 0.447231 0.796113 0.447231 0.824173 0.447231 0.839341 0.447231 0.861121 0.567047 0.814861 0.568322 0.870571 0.579041 0.861121 0.646767 0.870571 0.657264 0.796113 0.579041 0.796113 0.657264 0.805518 0.646767 0.814861 0.657284 0.824173 0.579041 0.824173 0.646767 0.833448 0.660088 0.842303 0.660088 0.851674 0.579041 0.851674 0.660456 0.870571 0.673283 0.861121 0.662337 0.861121 0.730864 0.870571 0.730864 0.805518 0.662919 0.796113 0.673283 0.796113 0.730864 0.805518 0.730864 0.814861 0.673282 0.814861 0.730864 0.824173 0.662919 0.824173 0.730864 0.833449 0.730864 0.842303 0.730864 0.851674 0.730864 0.857961 0.775911 0.870571 0.775911 0.796113 0.775911 0.811736 0.775911 0.824173 0.775911 0.839341 0.775911 0.590294 0.995256 0.655997 0.995256 0.655997 0.985742 0.587392 0.985742 0.587392 0.93061 0.655997 0.93061 0.655997 0.921067 0.590294 0.921067 0.587392 0.940053 0.655997 0.940053 0.600737 0.949414 0.655997 0.949414 0.590274 0.957526 0.655997 0.957526 0.590275 0.966889 0.655997 0.966889 0.587392 0.976292 0.655997 0.976292 0.699705 0.995256 0.699705 0.98258 0.699705 0.936894 0.699705 0.921067 0.699705 0.949414 0.699705 0.963757 0.584556 0.949414 0.573828 0.995256 0.490239 0.985742 0.493141 0.995256 0.573828 0.921067 0.493141 0.921067 0.490239 0.93061 0.493121 0.940053 0.493121 0.949414 0.573828 0.957526 0.490239 0.957526 0.573828 0.966889 0.504037 0.966889 0.490239 0.976292 0.476679 0.995256 0.420532 0.985742 0.420532 0.995256 0.476679 0.921067 0.420532 0.921067 0.420532 0.93061 0.476679 0.940053 0.420532 0.940053 0.476679 0.949414 0.420532 0.949414 0.420532 0.957526 0.487307 0.966889 0.420532 0.966889 0.420532 0.976292 0.372204 0.982582 0.372204 0.995256 0.372204 0.921067 0.372204 0.936896 0.372204 0.949414 0.372204 0.963759 0.116501 0.995256 0.119321 0.985397 0.052222 0.985397 0.052222 0.995256 0.119321 0.930999 0.116501 0.921544 0.052222 0.921544 0.052222 0.930999 0.119321 0.940349 0.052222 0.940349 0.10645 0.949667 0.052222 0.949667 0.11652 0.958976 0.052222 0.958976 0.11652 0.967239 0.052222 0.967239 0.119321 0.976253 0.052222 0.976253 0.009775 0.982338 0.009775 0.995256 0.009775 0.921544 0.009775 0.937221 0.009775 0.949667 0.009775 0.964475 0.122056 0.949667 0.132499 0.995256 0.211108 0.995256 0.211128 0.985397 0.214067 0.930999 0.211108 0.921544 0.132499 0.921544 0.214067 0.940349 0.211128 0.949667 0.132499 0.958976 0.214067 0.958976 0.132499 0.967239 0.211128 0.967239 0.214067 0.976253 0.227896 0.995256 0.287434 0.995256 0.287434 0.985397 0.227896 0.985397 0.287434 0.930999 0.287434 0.921544 0.227896 0.921544 0.287434 0.940349 0.227896 0.949667 0.287434 0.949667 0.287434 0.958976 0.227896 0.967239 0.287434 0.967239 0.287434 0.976253 0.338198 0.995256 0.338198 0.982339 0.338198 0.937222 0.338198 0.921544 0.338198 0.949667 0.338198 0.964476 0.290827 0.24882 0.298285 0.248822 0.305696 0.248822 0.312893 0.248822 0.320004 0.248822 0.327977 0.248822 0.335405 0.248822 0.342827 0.248822 0.350233 0.24882 0.339029 0.07447 0.323897 0.07447 0.312893 0.07447 0.301903 0.07447 0.290827 0.07447 0.350233 0.07447 0.290827 0.273949 0.301992 0.273949 0.31645 0.273949 0.327977 0.273949 0.339118 0.273949 0.350233 0.273949 0.290827 0.30145 0.298285 0.301444 0.305696 0.301445 0.312893 0.301445 0.320004 0.301444 0.327977 0.301445 0.335405 0.301445 0.342827 0.301445 0.350233 0.30145 0.290827 0.356189 0.30322 0.356189 0.317628 0.356189 0.332923 0.356189 0.348998 0.356189 0.298285 0.0652359 0.290827 0.0652264 0.305696 0.0652358 0.312893 0.0652358 0.320004 0.0652359 0.327977 0.0652357 0.335405 0.0652358 0.342827 0.0652359 0.350233 0.0652264 0.300767 0.00740302 0.290827 0.00740302 0.312893 0.00740302 0.322674 0.00740302 0.337891 0.00740302 0.350233 0.00740302 0.266704 0.248789 0.274197 0.248789 0.281786 0.248787 0.22196 0.248787 0.229295 0.248789 0.236565 0.248789 0.244091 0.248789 0.251895 0.248789 0.259273 0.248789 0.255497 0.07447 0.240239 0.07447 0.229295 0.07447 0.22196 0.07447 0.281786 0.07447 0.270362 0.07447 0.270452 0.273949 0.281786 0.273949 0.22196 0.273949 0.232932 0.273949 0.244091 0.273949 0.255586 0.273949 0.266704 0.301445 0.274197 0.301444 0.281786 0.30145 0.22196 0.30145 0.229295 0.301445 0.236565 0.301446 0.244091 0.301446 0.251895 0.301444 0.259273 0.301445 0.271693 0.356189 0.281786 0.356189 0.22196 0.356189 0.234136 0.356189 0.249287 0.356189 0.259273 0.356189 0.274197 0.0649683 0.266704 0.064968 0.281786 0.0649559 0.229295 0.0649682 0.22196 0.0649559 0.236565 0.0649681 0.244091 0.0649684 0.251895 0.0649682 0.259273 0.0649682 0.269217 0.00740302 0.281786 0.00740302 0.231733 0.00740302 0.22196 0.00740302 0.244091 0.00740302 0.254369 0.00740302</float_array>
                    <technique_common>
                        <accessor count="1041" source="#NODE2-lib-uv-array" stride="2">
                            <param name="S" type="float" />
                            <param name="T" type="float" />
                        </accessor>
                    </technique_common>
                </source>
                <vertices id="NODE2-lib-vertices">
                    <input semantic="POSITION" source="#NODE2-lib-positions" />
                </vertices>
                <triangles count="1391" material="MAT">
                    <input offset="0" semantic="VERTEX" source="#NODE2-lib-vertices" set="0" />
                    <input offset="1" semantic="TEXCOORD" source="#NODE2-lib-uv" set="0" />
                    <p>0 0 1 1 2 2 0 0 2 2 3 3 1 1 4 4 5 5 1 1 5 5 2 2 4 4 6 6 7 7 4 4 7 7 5 5 8 8 7 7 6 6 8 8 6 6 9 9 10 10 8 8 9 9 10 10 9 9 11 11 12 12 10 10 11 11 12 12 11 11 13 13 14 14 12 12 13 13 14 14 13 13 15 15 14 14 15 15 16 16 15 15 17 17 18 18 15 15 18 18 16 16 19 19 18 18 17 17 19 19 17 17 20 20 19 19 20 20 21 21 19 19 21 21 22 22 23 23 24 24 25 25 23 23 25 25 26 26 26 26 25 25 27 27 26 26 27 27 28 28 28 28 27 27 29 29 28 28 29 29 30 30 31 31 32 32 30 30 31 31 30 30 29 29 33 33 34 34 32 32 33 33 32 32 31 31 35 35 36 36 34 34 35 35 34 34 33 33 37 37 38 38 36 36 37 37 36 36 35 35 37 37 39 39 38 38 38 38 39 39 40 40 38 38 40 40 41 41 42 42 43 43 41 41 42 42 41 41 40 40 42 42 44 44 45 45 42 42 45 45 43 43 46 46 47 47 48 48 46 46 48 48 49 49 47 47 50 50 51 51 47 47 51 51 48 48 50 50 52 52 53 53 50 50 53 53 51 51 52 52 54 54 55 55 52 52 55 55 53 53 54 54 56 56 57 57 54 54 57 57 55 55 56 56 24 58 23 59 56 56 23 59 57 57 46 46 49 49 58 60 46 46 58 60 59 61 59 61 58 60 60 62 59 61 60 62 61 63 61 63 60 62 62 64 61 63 62 64 63 65 63 65 62 64 64 66 63 65 64 66 65 67 65 67 64 66 66 68 65 67 66 68 67 69 67 69 66 68 0 70 67 69 0 70 3 71 68 72 69 73 79 83 68 72 79 83 70 74 79 83 69 73 71 75 79 83 71 75 72 76 79 83 72 76 73 77 79 83 73 77 74 78 75 79 70 74 79 83 75 79 79 83 76 80 77 81 76 80 79 83 77 81 79 83 78 82 82 86 83 87 79 83 82 86 79 83 80 84 79 83 83 87 84 88 79 83 84 88 85 89 79 83 85 89 86 90 79 83 86 90 87 91 79 83 87 91 88 92 79 83 88 92 89 93 90 94 91 95 79 83 90 94 79 83 74 78 92 96 93 97 79 83 92 96 79 83 91 95 94 98 95 99 81 85 94 98 81 85 79 83 93 97 96 100 94 98 93 97 94 98 79 83 79 83 89 93 97 101 98 102 78 82 79 83 99 103 100 104 79 83 99 103 79 83 97 101 101 105 102 106 79 83 101 105 79 83 100 104 103 107 104 108 98 102 103 107 98 102 79 83 102 106 105 109 103 107 102 106 103 107 79 83 106 110 107 111 135 139 106 110 135 139 108 112 135 139 109 113 110 114 135 139 110 114 108 112 135 139 111 115 112 116 135 139 112 116 109 113 113 117 114 118 135 139 113 117 135 139 107 111 115 119 116 120 135 139 115 119 135 139 114 118 117 121 118 122 135 139 117 121 135 139 119 123 120 124 119 123 135 139 120 124 135 139 121 125 135 139 122 126 123 127 135 139 123 127 121 125 135 139 124 128 125 129 135 139 125 129 122 126 135 139 126 130 127 131 135 139 127 131 124 128 128 132 111 115 135 139 128 132 135 139 129 133 130 134 129 133 135 139 130 134 135 139 131 135 132 136 135 139 118 122 132 136 118 122 133 137 131 135 135 139 132 136 131 135 132 136 134 138 136 140 135 139 116 120 137 141 135 139 138 142 139 143 138 142 135 139 139 143 135 139 140 144 141 145 135 139 136 140 141 145 136 140 142 146 140 144 135 139 141 145 140 144 141 145 143 147 144 148 145 149 146 150 144 148 146 150 147 151 145 149 148 152 149 153 145 149 149 153 146 150 148 152 150 154 151 155 148 152 151 155 149 153 152 156 153 157 154 158 152 156 154 158 155 159 156 160 154 158 153 157 156 160 153 157 157 161 158 162 156 160 157 161 158 162 157 161 159 163 160 164 161 165 47 166 160 164 47 166 46 167 161 165 162 168 50 169 161 165 50 169 47 166 162 168 163 170 52 171 162 168 52 171 50 169 163 170 37 172 35 173 163 170 35 173 52 171 35 173 33 174 54 175 35 173 54 175 52 171 33 174 31 176 56 177 33 174 56 177 54 175 31 176 25 178 24 179 31 176 24 179 56 177 31 176 29 180 27 181 31 176 27 181 25 178 160 164 46 167 59 182 160 164 59 182 164 183 164 183 59 182 61 184 164 183 61 184 165 185 165 185 61 184 63 186 165 185 63 186 166 187 166 187 63 186 12 188 166 187 12 188 14 189 12 188 63 186 65 190 12 188 65 190 10 191 10 191 65 190 67 192 10 191 67 192 8 193 8 193 67 192 3 194 8 193 3 194 2 195 8 193 2 195 5 196 8 193 5 196 7 197 49 198 48 199 167 200 49 198 167 200 168 201 169 202 170 203 171 204 172 205 173 206 169 202 174 207 44 224 173 206 174 207 173 206 172 205 171 204 170 203 161 208 171 204 161 208 160 209 175 210 44 224 174 207 168 201 167 200 176 211 48 199 51 212 41 221 48 199 41 221 167 200 169 202 177 213 170 203 173 206 42 225 177 213 173 206 177 213 169 202 44 224 42 225 173 206 170 203 162 214 161 208 175 210 45 223 44 224 176 211 43 222 45 223 176 211 45 223 175 210 167 200 41 221 43 222 167 200 43 222 176 211 170 203 39 227 163 215 170 203 163 215 162 214 53 216 55 217 34 218 53 216 34 218 36 219 51 212 53 216 38 220 42 225 40 226 177 213 177 213 40 226 39 227 177 213 39 227 170 203 39 227 37 228 163 215 53 216 36 219 38 220 55 217 57 229 32 230 55 217 32 230 34 218 57 229 23 231 26 232 57 229 26 232 32 230 26 232 28 233 30 234 26 232 30 234 32 230 49 198 168 201 58 235 169 202 171 204 178 236 172 205 169 202 178 236 171 204 160 209 164 237 176 211 175 210 179 238 168 201 176 211 179 238 58 235 168 201 17 247 58 235 17 247 60 239 178 236 171 204 180 240 172 205 178 236 19 252 174 207 172 205 19 252 174 207 19 252 22 251 171 204 164 237 165 241 171 204 165 241 180 240 175 210 174 207 22 251 175 210 22 251 21 250 179 238 175 210 21 250 179 238 21 250 20 249 168 201 179 238 20 249 168 201 20 249 17 247 180 240 165 241 166 242 180 240 166 242 16 254 62 243 13 244 11 245 62 243 11 245 64 246 60 239 17 247 15 248 19 252 178 236 18 253 178 236 180 240 16 254 178 236 16 254 18 253 16 254 166 242 14 255 62 243 15 248 13 244 64 246 11 245 9 256 64 246 9 256 66 257 66 257 9 256 1 258 66 257 1 258 0 259 1 258 9 256 6 260 1 258 6 260 4 261 60 239 15 248 62 243 51 212 38 220 41 221 132 262 94 263 96 264 132 262 96 264 134 265 134 265 96 264 93 266 134 265 93 266 131 267 120 268 82 269 80 270 120 268 80 270 119 271 119 271 80 270 79 272 119 271 79 272 117 273 117 273 79 272 81 274 117 273 81 274 118 275 118 275 81 274 95 276 118 275 95 276 133 277 133 277 95 276 94 263 133 277 94 263 132 262 140 278 102 279 101 280 140 278 101 280 139 281 139 281 101 280 100 282 139 281 100 282 138 283 138 283 100 282 99 284 138 283 99 284 137 285 137 285 99 284 97 286 137 285 97 286 135 287 135 287 97 286 89 288 135 287 89 288 126 289 126 289 89 288 88 290 126 289 88 290 127 291 127 291 88 290 87 292 127 291 87 292 124 293 124 294 87 295 86 296 124 294 86 296 125 297 125 297 86 296 85 298 125 297 85 298 122 299 122 299 85 298 84 300 122 299 84 300 123 301 123 301 84 300 83 302 123 301 83 302 121 303 121 303 83 302 82 269 121 303 82 269 120 268 129 304 130 305 92 306 129 304 92 306 91 307 130 305 131 267 93 266 130 305 93 266 92 306 110 308 109 309 72 310 110 308 72 310 71 311 109 309 112 312 73 313 109 309 73 313 72 310 112 312 111 314 74 315 112 312 74 315 73 313 111 314 128 316 90 317 111 314 90 317 74 315 128 316 129 304 91 307 128 316 91 307 90 317 140 278 143 318 105 319 140 278 105 319 102 279 143 318 141 320 103 321 143 318 103 321 105 319 141 320 142 322 104 323 141 320 104 323 103 321 142 322 136 324 98 325 142 322 98 325 104 323 136 324 116 326 78 327 136 324 78 327 98 325 116 326 115 328 77 329 116 326 77 329 78 327 115 328 114 330 76 331 115 328 76 331 77 329 114 332 113 333 75 334 114 332 75 334 76 335 113 333 107 336 70 337 113 333 70 337 75 334 107 336 106 338 68 339 107 336 68 339 70 337 106 338 108 340 69 341 106 338 69 341 68 339 108 340 110 308 71 311 108 340 71 311 69 341 181 342 182 343 183 344 181 342 183 344 184 345 184 345 183 344 185 346 184 345 185 346 186 347 186 347 185 346 187 348 186 347 187 348 188 349 188 349 187 348 189 350 188 349 189 350 190 351 190 351 189 350 191 352 190 351 191 352 192 353 192 353 191 352 193 354 192 353 193 354 194 355 194 355 193 354 195 356 194 355 195 356 196 357 196 357 195 356 182 358 196 357 182 358 181 359 193 354 197 360 198 361 193 354 198 361 195 356 191 352 197 360 193 354 189 350 199 362 197 360 189 350 197 360 191 352 187 348 199 362 189 350 185 346 200 363 199 362 185 346 199 362 187 348 183 344 200 363 185 346 182 343 201 364 200 363 182 343 200 363 183 344 195 356 198 361 201 365 195 356 201 365 182 358 184 345 202 366 203 367 184 345 203 367 181 342 186 347 204 368 202 366 186 347 202 366 184 345 188 349 205 369 204 368 188 349 204 368 186 347 190 351 206 370 205 369 190 351 205 369 188 349 192 353 207 371 206 370 192 353 206 370 190 351 194 355 208 372 207 371 194 355 207 371 192 353 196 357 209 373 208 372 196 357 208 372 194 355 181 359 203 374 209 373 181 359 209 373 196 357 202 366 210 375 211 376 202 366 211 376 203 367 204 368 212 377 210 375 204 368 210 375 202 366 205 369 213 378 212 377 205 369 212 377 204 368 206 370 214 379 213 378 206 370 213 378 205 369 207 371 215 380 214 379 207 371 214 379 206 370 208 372 216 381 215 380 208 372 215 380 207 371 209 373 217 382 216 381 209 373 216 381 208 372 203 374 211 383 217 382 203 374 217 382 209 373 210 375 157 386 218 384 210 375 218 384 211 376 212 377 159 388 157 386 212 377 157 386 210 375 213 378 158 389 159 388 213 378 159 388 212 377 214 379 156 390 158 389 214 379 158 389 213 378 215 380 154 391 156 390 215 380 156 390 214 379 216 381 155 392 154 391 216 381 154 391 215 380 217 382 152 393 155 392 217 382 155 392 216 381 211 383 218 385 152 393 211 383 152 393 217 382 157 386 153 387 218 384 218 385 153 394 152 393 219 395 220 396 221 397 219 395 221 397 222 398 220 396 223 399 224 400 220 396 224 400 221 397 223 399 225 401 226 402 223 399 226 402 224 400 225 401 227 403 228 404 225 401 228 404 226 402 227 403 229 405 230 406 227 403 230 406 228 404 229 405 231 407 232 408 229 405 232 408 230 406 231 407 233 409 234 410 231 407 234 410 232 408 233 409 219 411 222 412 233 409 222 412 234 410 232 408 234 410 235 413 232 408 235 413 236 414 230 406 232 408 236 414 228 404 230 406 236 414 228 404 236 414 237 415 226 402 228 404 237 415 226 402 237 415 238 416 224 400 226 402 238 416 221 397 224 400 238 416 221 397 238 416 239 417 222 398 221 397 239 417 234 410 222 412 239 418 234 410 239 418 235 413 220 396 219 395 240 419 220 396 240 419 241 420 223 399 220 396 241 420 223 399 241 420 242 421 225 401 223 399 242 421 225 401 242 421 243 422 227 403 225 401 243 422 227 403 243 422 244 423 229 405 227 403 244 423 229 405 244 423 245 424 231 407 229 405 245 424 231 407 245 424 246 425 233 409 231 407 246 425 233 409 246 425 247 426 219 411 233 409 247 426 219 411 247 426 240 427 241 420 240 419 248 428 241 420 248 428 249 429 242 421 241 420 249 429 242 421 249 429 250 430 243 422 242 421 250 430 243 422 250 430 251 431 244 423 243 422 251 431 244 423 251 431 252 432 245 424 244 423 252 432 245 424 252 432 253 433 246 425 245 424 253 433 246 425 253 433 254 434 247 426 246 425 254 434 247 426 254 434 255 435 240 427 247 426 255 435 240 427 255 435 248 436 249 429 248 428 256 437 249 429 256 437 145 440 250 430 249 429 145 440 250 430 145 440 144 441 251 431 250 430 144 441 251 431 144 441 147 442 252 432 251 431 147 442 252 432 147 442 146 443 253 433 252 432 146 443 253 433 146 443 149 444 254 434 253 433 149 444 254 434 149 444 151 445 255 435 254 434 151 445 255 435 151 445 150 446 248 436 255 435 150 446 248 436 150 446 256 438 145 440 256 437 148 439 256 438 150 446 148 447 257 448 258 449 259 450 257 448 259 450 260 451 258 449 261 452 262 453 258 449 262 453 259 450 261 452 263 454 264 455 261 452 264 455 262 453 263 454 265 456 266 457 263 454 266 457 264 455 265 458 267 459 268 460 265 458 268 460 266 461 267 459 269 462 270 463 267 459 270 463 268 460 269 462 271 464 272 465 269 462 272 465 270 463 271 464 257 448 260 451 271 464 260 451 272 465 270 463 272 465 273 466 270 463 273 466 274 467 268 460 270 463 274 467 266 461 268 460 274 467 266 461 274 467 275 468 264 455 266 457 275 469 264 455 275 469 276 470 262 453 264 455 276 470 262 453 276 470 277 471 259 450 262 453 277 471 260 451 259 450 277 471 260 451 277 471 273 466 272 465 260 451 273 466 258 449 257 448 278 472 258 449 278 472 279 473 261 452 258 449 279 473 261 452 279 473 280 474 263 454 261 452 280 474 263 454 280 474 281 475 265 456 263 454 281 475 265 456 281 475 282 476 267 459 265 458 282 477 267 459 282 477 283 478 269 462 267 459 283 478 269 462 283 478 284 479 271 464 269 462 284 479 271 464 284 479 285 480 257 448 271 464 285 480 257 448 285 480 278 472 279 473 278 472 286 481 279 473 286 481 287 482 280 474 279 473 287 482 280 474 287 482 288 483 281 475 280 474 288 483 281 475 288 483 289 484 282 476 281 475 289 484 282 476 289 484 290 485 283 478 282 477 290 486 283 478 290 486 291 487 284 479 283 478 291 487 284 479 291 487 292 488 285 480 284 479 292 488 285 480 292 488 293 489 278 472 285 480 293 489 278 472 293 489 286 481 287 482 286 481 295 492 287 482 295 492 296 493 288 483 287 482 296 493 288 483 296 493 297 494 289 484 288 483 297 494 289 484 297 494 298 495 290 485 289 484 298 495 290 485 298 495 294 490 291 487 290 486 294 491 291 487 294 491 300 498 292 488 291 487 300 498 292 488 300 498 301 499 293 489 292 488 301 499 293 489 301 499 302 500 286 481 293 489 302 500 286 481 302 500 295 492 294 490 298 495 299 496 300 498 294 491 299 497 299 501 298 502 301 503 299 501 301 503 300 504 302 505 301 503 298 502 302 505 298 502 297 506 297 506 296 507 295 508 297 506 295 508 302 505 303 509 304 510 305 511 303 509 305 511 306 512 306 512 305 511 307 513 306 512 307 513 308 514 308 514 307 513 309 515 308 514 309 515 310 516 310 516 309 515 311 517 310 516 311 517 312 518 312 519 311 520 313 521 312 519 313 521 314 522 314 522 313 521 315 523 314 522 315 523 316 524 316 524 315 523 317 525 316 524 317 525 318 526 318 526 317 525 304 510 318 526 304 510 303 509 315 523 319 527 320 528 315 523 320 528 317 525 313 521 319 527 315 523 311 520 321 529 319 527 311 520 319 527 313 521 309 515 322 530 321 531 309 515 321 531 311 517 307 513 323 532 322 530 307 513 322 530 309 515 305 511 323 532 307 513 304 510 320 528 323 532 304 510 323 532 305 511 317 525 320 528 304 510 306 512 324 533 325 534 306 512 325 534 303 509 308 514 326 535 324 533 308 514 324 533 306 512 310 516 327 536 326 535 310 516 326 535 308 514 312 518 328 537 327 536 312 518 327 536 310 516 314 522 329 538 328 539 314 522 328 539 312 519 316 524 330 540 329 538 316 524 329 538 314 522 318 526 331 541 330 540 318 526 330 540 316 524 303 509 325 534 331 541 303 509 331 541 318 526 324 533 332 542 333 543 324 533 333 543 325 534 326 535 334 544 332 542 326 535 332 542 324 533 327 536 335 545 334 544 327 536 334 544 326 535 328 537 336 546 335 545 328 537 335 545 327 536 329 538 337 547 336 548 329 538 336 548 328 539 330 540 338 549 337 547 330 540 337 547 329 538 331 541 339 550 338 549 331 541 338 549 330 540 325 534 333 543 339 550 325 534 339 550 331 541 332 542 341 553 342 554 332 542 342 554 333 543 334 544 343 555 341 553 334 544 341 553 332 542 335 545 344 556 343 555 335 545 343 555 334 544 336 546 340 551 344 556 336 546 344 556 335 545 337 547 346 558 340 552 337 547 340 552 336 548 338 549 347 560 346 558 338 549 346 558 337 547 339 550 348 561 347 560 339 550 347 560 338 549 333 543 342 554 348 561 333 543 348 561 339 550 340 551 345 557 344 556 346 558 345 559 340 552 345 562 346 563 347 564 345 562 347 564 344 565 348 566 343 567 344 565 348 566 344 565 347 564 343 567 348 566 342 568 343 567 342 568 341 569 355 576 357 579 356 577 354 575 358 580 357 579 354 575 357 579 355 576 353 574 359 581 358 580 353 574 358 580 354 575 352 573 359 581 353 574 351 572 360 582 359 581 351 572 359 581 352 573 350 571 360 582 351 572 349 570 361 583 360 582 349 570 360 582 350 571 356 577 357 579 361 584 356 577 361 584 349 578 350 571 362 585 363 586 350 571 363 586 349 570 351 572 362 585 350 571 352 573 364 587 362 585 352 573 362 585 351 572 353 574 364 587 352 573 354 575 365 588 364 587 354 575 364 587 353 574 355 576 366 589 365 588 355 576 365 588 354 575 356 577 366 589 355 576 349 578 363 590 366 589 349 578 366 589 356 577 362 585 367 591 368 592 362 585 368 592 363 586 362 585 369 593 367 591 364 587 370 594 369 593 364 587 369 593 362 585 364 587 371 595 370 594 365 588 372 596 371 595 365 588 371 595 364 587 366 589 373 597 372 596 366 589 372 596 365 588 366 589 374 598 373 597 363 590 368 599 374 598 363 590 374 598 366 589 367 591 375 600 376 601 367 591 376 601 368 592 369 593 375 600 367 591 370 594 377 602 375 600 370 594 375 600 369 593 371 595 377 602 370 594 372 596 378 603 377 602 372 596 377 602 371 595 373 597 378 603 372 596 374 598 376 604 378 603 374 598 378 603 373 597 368 599 376 604 374 598 361 583 379 605 380 606 361 583 380 606 360 582 360 582 380 606 381 607 360 582 381 607 382 608 360 582 382 608 359 581 359 581 382 608 383 609 359 581 383 609 358 580 358 580 384 610 357 579 357 579 384 610 385 611 357 579 385 611 379 612 357 579 379 612 361 584 379 605 386 613 380 606 380 606 386 613 387 614 380 606 387 614 381 607 381 607 387 614 382 608 382 608 387 614 388 615 382 608 388 615 383 609 383 609 388 615 358 580 358 580 388 615 389 616 358 580 389 616 384 610 384 610 389 616 385 611 385 611 389 616 386 617 385 611 386 617 379 612 396 625 398 627 397 626 395 624 399 628 398 627 395 624 398 627 396 625 394 623 399 628 395 624 393 622 400 629 399 628 393 622 399 628 394 623 392 620 401 630 400 631 392 620 400 631 393 621 391 619 402 632 401 630 391 619 401 630 392 620 390 618 402 632 391 619 397 626 398 627 402 632 397 626 402 632 390 618 391 619 403 633 404 634 391 619 404 634 390 618 392 620 403 633 391 619 393 621 405 635 403 633 393 621 403 633 392 620 394 623 406 636 405 637 394 623 405 637 393 622 395 624 406 636 394 623 396 625 407 638 406 636 396 625 406 636 395 624 397 626 407 638 396 625 390 618 404 634 407 638 390 618 407 638 397 626 403 633 408 639 409 640 403 633 409 640 404 634 403 633 410 641 408 639 405 635 411 642 410 641 405 635 410 641 403 633 406 636 412 643 411 644 406 636 411 644 405 637 406 636 413 645 412 643 407 638 414 646 413 645 407 638 413 645 406 636 407 638 415 647 414 646 404 634 409 640 415 647 404 634 415 647 407 638 408 639 416 648 417 649 408 639 417 649 409 640 410 641 416 648 408 639 411 642 418 650 416 648 411 642 416 648 410 641 412 643 418 651 411 644 413 645 419 652 418 651 413 645 418 651 412 643 414 646 419 652 413 645 415 647 417 649 419 652 415 647 419 652 414 646 409 640 417 649 415 647 402 632 420 653 421 654 402 632 421 654 422 655 402 632 422 655 401 630 401 630 422 655 423 656 401 630 423 656 400 631 400 629 423 657 424 658 400 629 424 658 399 628 399 628 424 658 425 659 399 628 425 659 426 660 399 628 426 660 398 627 398 627 426 660 427 661 398 627 427 661 420 653 398 627 420 653 402 632 420 653 428 662 421 654 421 654 428 662 429 663 421 654 429 663 422 655 422 655 429 663 423 656 423 657 429 664 430 665 423 657 430 665 424 658 424 658 430 665 425 659 425 659 430 665 431 666 425 659 431 666 426 660 426 660 431 666 427 661 427 661 431 666 428 662 427 661 428 662 420 653 438 674 440 676 439 675 437 673 441 677 440 676 437 673 440 676 438 674 436 672 441 677 437 673 435 671 442 678 441 677 435 671 441 677 436 672 434 669 443 679 442 680 434 669 442 680 435 670 433 668 444 681 443 679 433 668 443 679 434 669 432 667 444 681 433 668 439 675 440 676 444 681 439 675 444 681 432 667 433 668 445 682 446 683 433 668 446 683 432 667 434 669 445 682 433 668 435 670 447 684 445 682 435 670 445 682 434 669 436 672 448 685 447 686 436 672 447 686 435 671 437 673 448 685 436 672 438 674 449 687 448 685 438 674 448 685 437 673 439 675 449 687 438 674 432 667 446 683 449 687 432 667 449 687 439 675 445 682 450 688 451 689 445 682 451 689 446 683 445 682 452 690 450 688 447 684 453 691 452 690 447 684 452 690 445 682 448 685 454 692 453 693 448 685 453 693 447 686 448 685 455 694 454 692 449 687 456 695 455 694 449 687 455 694 448 685 449 687 457 696 456 695 446 683 451 689 457 696 446 683 457 696 449 687 450 688 458 697 459 698 450 688 459 698 451 689 452 690 458 697 450 688 453 691 460 699 458 697 453 691 458 697 452 690 454 692 460 700 453 693 455 694 461 701 460 700 455 694 460 700 454 692 456 695 461 701 455 694 457 696 459 698 461 701 457 696 461 701 456 695 451 689 459 698 457 696 444 681 462 702 463 703 444 681 463 703 464 704 444 681 464 704 443 679 443 679 464 704 465 705 443 679 465 705 442 680 442 678 465 706 466 707 442 678 466 707 441 677 441 677 466 707 467 708 441 677 467 708 468 709 441 677 468 709 440 676 440 676 468 709 469 710 440 676 469 710 462 702 440 676 462 702 444 681 462 702 470 711 463 703 463 703 470 711 471 712 463 703 471 712 464 704 464 704 471 712 465 705 465 706 471 713 472 714 465 706 472 714 466 707 466 707 472 714 467 708 467 708 472 714 473 715 467 708 473 715 468 709 468 709 473 715 469 710 469 710 473 715 470 711 469 710 470 711 462 702 480 722 481 723 482 725 479 721 480 722 482 725 479 721 482 725 483 726 478 720 479 721 483 726 478 720 483 726 484 727 477 719 478 720 484 727 476 718 477 719 484 727 476 718 484 727 485 728 475 717 476 718 485 728 474 716 475 717 485 728 474 716 485 728 486 729 481 723 474 724 486 730 481 723 486 730 482 725 475 717 474 716 487 731 475 717 487 731 488 732 476 718 475 717 488 732 477 719 476 718 488 732 477 719 488 732 489 733 478 720 477 719 489 733 479 721 478 720 489 733 479 721 489 733 490 734 480 722 479 721 490 734 480 722 490 734 491 735 481 723 480 722 491 735 474 724 481 723 491 735 474 724 491 735 487 736 488 732 487 731 492 737 488 732 492 737 493 738 488 732 493 738 494 739 489 733 488 732 494 739 489 733 494 739 495 740 489 733 495 740 496 741 490 734 489 733 496 741 490 734 496 741 497 742 491 735 490 734 497 742 491 735 497 742 498 743 491 735 498 743 499 744 487 736 491 735 499 744 487 736 499 744 492 745 493 738 492 737 500 746 493 738 500 746 501 747 494 739 493 738 501 747 495 740 494 739 501 747 495 740 501 747 502 748 496 741 495 740 502 748 497 742 496 741 502 748 497 742 502 748 503 749 498 743 497 742 503 749 499 744 498 743 503 749 499 744 503 749 500 750 492 745 499 744 500 750 486 729 485 728 504 751 486 729 504 751 505 752 485 728 506 753 504 751 485 728 484 727 507 754 485 728 507 754 506 753 484 727 508 755 507 754 484 727 483 726 508 755 483 726 482 725 509 756 482 725 510 757 509 756 482 725 486 730 505 758 482 725 505 758 510 757 505 752 504 751 511 759 504 751 506 753 512 760 504 751 512 760 511 759 506 753 507 754 512 760 507 754 508 755 513 761 507 754 513 761 512 760 508 755 483 726 513 761 483 726 509 756 514 762 483 726 514 762 513 761 509 756 510 757 514 762 510 757 505 758 511 763 510 757 511 763 514 762 515 764 516 765 517 766 515 764 517 766 518 767 517 768 516 769 519 770 517 768 519 770 520 771 520 771 519 770 521 772 520 771 521 772 522 773 522 773 521 772 523 774 522 773 523 774 524 775 524 775 523 774 525 776 524 775 525 776 526 777 526 777 525 776 527 778 526 777 527 778 528 779 528 779 527 778 529 780 528 779 529 780 530 781 530 781 529 780 515 764 530 781 515 764 518 767 517 766 531 782 532 783 517 766 532 783 518 767 520 771 533 784 531 785 520 771 531 785 517 768 522 773 533 784 520 771 524 775 534 786 533 784 524 775 533 784 522 773 526 777 535 787 534 786 526 777 534 786 524 775 528 779 535 787 526 777 530 781 532 783 535 787 530 781 535 787 528 779 518 767 532 783 530 781 516 765 515 764 536 788 521 772 519 770 537 789 523 774 521 772 537 789 536 788 515 764 529 780 538 790 536 788 539 791 538 790 539 791 540 792 519 770 538 793 540 794 519 770 540 794 541 795 537 789 519 770 541 795 537 789 541 795 542 796 543 797 537 789 542 796 543 797 542 796 544 798 525 776 543 797 544 798 525 776 544 798 545 799 527 778 525 776 545 799 527 778 545 799 546 800 547 801 527 778 546 800 547 801 546 800 548 802 539 791 536 788 547 801 539 791 547 801 548 802 536 788 538 790 516 765 516 769 538 793 519 770 537 789 543 797 523 774 523 774 543 797 525 776 527 778 547 801 529 780 529 780 547 801 536 788 549 803 550 804 551 805 549 803 551 805 552 806 553 807 549 808 552 809 553 807 552 809 554 810 555 811 553 807 554 810 555 811 554 810 556 812 557 813 555 811 556 812 557 813 556 812 558 814 545 799 557 813 558 814 545 799 558 814 559 815 546 800 545 799 559 815 546 800 559 815 560 816 548 802 546 800 560 816 548 802 560 816 561 817 550 804 548 802 561 817 550 804 561 817 551 805 552 806 551 805 562 818 552 806 562 818 563 819 554 810 552 809 563 820 554 810 563 820 564 821 556 812 554 810 564 821 558 814 556 812 564 821 558 814 564 821 565 822 559 815 558 814 565 822 559 815 565 822 566 823 560 816 559 815 566 823 561 817 560 816 566 823 561 817 566 823 562 818 551 805 561 817 562 818 550 804 549 803 540 792 549 808 553 807 540 794 553 807 555 811 542 796 555 811 557 813 542 796 540 792 539 791 550 804 541 795 540 794 553 807 542 796 541 795 553 807 544 798 542 796 557 813 545 799 544 798 557 813 550 804 539 791 548 802 567 824 568 825 569 826 567 824 569 826 570 827 571 828 572 829 568 830 571 828 568 830 567 831 573 832 574 833 572 829 573 832 572 829 571 828 575 834 576 835 574 833 575 834 574 833 573 832 577 836 578 837 576 835 577 836 576 835 575 834 579 838 580 839 578 837 579 838 578 837 577 836 581 840 582 841 580 839 581 840 580 839 579 838 570 827 569 826 582 841 570 827 582 841 581 840 568 825 583 842 584 843 568 825 584 843 569 826 572 829 585 844 583 845 572 829 583 845 568 830 574 833 585 844 572 829 576 835 586 846 585 844 576 835 585 844 574 833 578 837 587 847 586 846 578 837 586 846 576 835 580 839 587 847 578 837 582 841 584 843 587 847 582 841 587 847 580 839 569 826 584 843 582 841 573 832 588 848 575 834 575 834 588 848 577 836 589 849 570 827 590 850 589 849 590 850 591 851 571 828 589 852 591 853 571 828 591 853 592 854 573 832 571 828 592 854 573 832 592 854 593 855 588 848 573 832 593 855 588 848 593 855 594 856 595 857 588 848 594 856 595 857 594 856 596 858 597 859 595 857 596 858 597 859 596 858 598 860 581 840 597 859 598 860 581 840 598 860 599 861 570 827 581 840 599 861 570 827 599 861 590 850 570 827 589 849 567 824 589 852 571 828 567 831 588 848 595 857 577 836 595 857 597 859 579 838 595 857 579 838 577 836 597 859 581 840 579 838 600 862 590 850 601 863 600 862 601 863 602 864 592 854 600 865 602 866 592 854 602 866 603 867 604 868 592 854 603 867 604 868 603 867 605 869 606 870 604 868 605 869 606 870 605 869 607 871 596 858 606 870 607 871 596 858 607 871 608 872 609 873 596 858 608 872 609 873 608 872 610 874 599 861 609 873 610 874 599 861 610 874 611 875 590 850 599 861 611 875 590 850 611 875 601 863 602 864 601 863 612 876 602 864 612 876 613 877 603 867 602 866 613 878 603 867 613 878 614 879 605 869 603 867 614 879 607 871 605 869 614 879 607 871 614 879 615 880 608 872 607 871 615 880 608 872 615 880 616 881 610 874 608 872 616 881 611 875 610 874 616 881 611 875 616 881 612 876 601 863 611 875 612 876 590 850 600 862 591 851 600 865 592 854 591 853 592 854 604 868 593 855 604 868 606 870 594 856 604 868 594 856 593 855 606 870 596 858 594 856 596 858 609 873 598 860 598 860 609 873 599 861 617 882 618 883 619 884 617 882 619 884 620 885 621 886 617 887 620 888 621 886 620 888 622 889 623 890 621 886 622 889 623 890 622 889 624 891 625 892 623 890 624 891 625 892 624 891 626 893 627 894 625 892 626 893 627 894 626 893 628 895 629 896 627 894 628 895 629 896 628 895 630 897 631 898 629 896 630 897 631 898 630 897 632 899 618 883 631 898 632 899 618 883 632 899 619 884 620 885 619 884 633 900 620 885 633 900 634 901 622 889 620 888 634 902 622 889 634 902 635 903 624 891 622 889 635 903 626 893 624 891 635 903 626 893 635 903 636 904 628 895 626 893 636 904 628 895 636 904 637 905 630 897 628 895 637 905 632 899 630 897 637 905 632 899 637 905 633 900 619 884 632 899 633 900 623 890 625 892 638 906 625 892 627 894 638 906 639 907 640 908 641 909 639 907 641 909 618 883 621 886 642 910 640 911 621 886 640 911 639 912 623 890 643 913 642 910 623 890 642 910 621 886 638 906 644 914 643 913 638 906 643 913 623 890 645 915 646 916 644 914 645 915 644 914 638 906 647 917 648 918 646 916 647 917 646 916 645 915 631 898 649 919 648 918 631 898 648 918 647 917 618 883 641 909 649 919 618 883 649 919 631 898 618 883 617 882 639 907 639 912 617 887 621 886 638 906 627 894 645 915 645 915 627 894 629 896 645 915 629 896 647 917 647 917 629 896 631 898 650 920 651 921 652 922 650 920 652 922 653 923 642 910 654 924 651 925 642 910 651 925 650 926 643 913 655 927 654 924 643 913 654 924 642 910 656 928 657 929 655 927 656 928 655 927 643 913 646 916 658 930 657 929 646 916 657 929 656 928 659 931 660 932 658 930 659 931 658 930 646 916 649 919 661 933 660 932 649 919 660 932 659 931 653 923 652 922 661 933 653 923 661 933 649 919 651 921 662 934 663 935 651 921 663 935 652 922 654 924 664 936 662 937 654 924 662 937 651 925 655 927 664 936 654 924 657 929 665 938 664 936 657 929 664 936 655 927 658 930 666 939 665 938 658 930 665 938 657 929 660 932 666 939 658 930 661 933 663 935 666 939 661 933 666 939 660 932 652 922 663 935 661 933 653 923 641 909 640 908 653 923 640 908 650 920 650 926 640 911 642 910 643 913 644 914 656 928 656 928 644 914 646 916 646 916 648 918 659 931 659 931 648 918 649 919 649 919 641 909 653 923 673 946 674 947 675 949 672 945 673 946 675 949 672 945 675 949 676 950 671 944 672 945 676 950 670 943 671 944 676 950 670 943 676 950 677 951 669 942 670 943 677 951 669 942 677 951 678 952 668 941 669 942 678 952 667 940 668 941 678 952 667 940 678 952 679 953 674 947 667 948 679 954 674 947 679 954 675 949 668 941 667 940 680 955 668 941 680 955 681 956 669 942 668 941 681 956 670 943 669 942 681 956 670 943 681 956 682 957 671 944 670 943 682 957 672 945 671 944 682 957 672 945 682 957 683 958 673 946 672 945 683 958 673 946 683 958 684 959 674 947 673 946 684 959 667 948 674 947 684 959 667 948 684 959 680 960 681 956 680 955 685 961 681 956 685 961 686 962 681 956 686 962 687 963 682 957 681 956 687 963 682 957 687 963 688 964 682 957 688 964 689 965 683 958 682 957 689 965 683 958 689 965 690 966 684 959 683 958 690 966 684 959 690 966 691 967 684 959 691 967 692 968 680 960 684 959 692 968 680 960 692 968 685 969 686 962 685 961 693 970 686 962 693 970 694 971 687 963 686 962 694 971 688 964 687 963 694 971 688 964 694 971 695 972 689 965 688 964 695 972 690 966 689 965 695 972 690 966 695 972 696 973 691 967 690 966 696 973 692 968 691 967 696 973 692 968 696 973 693 974 685 969 692 968 693 974 679 953 678 952 697 975 679 953 697 975 698 976 678 952 699 977 697 975 678 952 677 951 700 978 678 952 700 978 699 977 677 951 676 950 701 979 677 951 701 979 700 978 676 950 702 980 701 979 676 950 675 949 703 981 676 950 703 981 702 980 675 949 704 982 703 981 675 949 679 954 698 983 675 949 698 983 704 982 698 976 697 975 705 984 698 976 705 984 706 985 697 975 699 977 705 984 699 977 700 978 707 986 699 977 707 986 705 984 700 978 701 979 708 987 700 978 708 987 707 986 701 979 702 980 708 987 702 980 703 981 709 988 702 980 709 988 708 987 703 981 704 982 709 988 704 982 698 983 706 989 704 982 706 989 709 988 716 997 717 998 718 999 715 996 716 997 718 999 715 996 718 999 719 1000 714 995 715 996 719 1000 713 994 714 995 719 1000 713 994 719 1000 720 1001 712 993 713 994 720 1001 712 993 720 1001 721 1002 711 991 712 992 721 1003 711 991 721 1003 722 1004 710 990 711 991 722 1004 717 998 710 990 722 1004 717 998 722 1004 718 999 711 991 710 990 723 1005 712 992 711 991 723 1005 712 992 723 1005 724 1006 713 994 712 993 724 1007 713 994 724 1007 725 1008 714 995 713 994 725 1008 715 996 714 995 725 1008 715 996 725 1008 726 1009 716 997 715 996 726 1009 716 997 726 1009 727 1010 717 998 716 997 727 1010 710 990 717 998 727 1010 710 990 727 1010 723 1005 723 1005 728 1011 729 1012 724 1006 723 1005 729 1012 724 1006 729 1012 730 1013 725 1008 724 1007 730 1014 725 1008 730 1014 731 1015 725 1008 731 1015 732 1016 726 1009 725 1008 732 1016 726 1009 732 1016 733 1017 727 1010 726 1009 733 1017 727 1010 733 1017 734 1018 727 1010 734 1018 735 1019 723 1005 727 1010 735 1019 723 1005 735 1019 728 1011 729 1012 728 1011 736 1020 730 1013 729 1012 736 1020 730 1013 736 1020 737 1021 731 1015 730 1014 737 1022 731 1015 737 1022 738 1023 732 1016 731 1015 738 1023 733 1017 732 1016 738 1023 733 1017 738 1023 739 1024 734 1018 733 1017 739 1024 735 1019 734 1018 739 1024 735 1019 739 1024 740 1025 728 1011 735 1019 740 1025 728 1011 740 1025 736 1020 722 1004 741 1026 742 1027 722 1004 721 1003 743 1028 722 1004 743 1028 741 1026 721 1002 720 1001 744 1029 721 1002 744 1029 743 1030 720 1001 719 1000 745 1031 720 1001 745 1031 744 1029 719 1000 746 1032 745 1031 719 1000 718 999 747 1033 719 1000 747 1033 746 1032 718 999 748 1034 747 1033 718 999 722 1004 742 1027 718 999 742 1027 748 1034 742 1027 741 1026 749 1035 741 1026 743 1028 750 1036 741 1026 750 1036 749 1035 743 1030 744 1029 751 1037 743 1030 751 1037 750 1038 744 1029 745 1031 751 1037 745 1031 746 1032 752 1039 745 1031 752 1039 751 1037 746 1032 747 1033 753 1040 746 1032 753 1040 752 1039 747 1033 748 1034 753 1040 748 1034 742 1027 749 1035 748 1034 749 1035 753 1040</p>
                </triangles>
            </mesh>
        </geometry>
    </library_geometries>
    <library_visual_scenes>
        <visual_scene id="RootNode" name="RootNode">
            <node id="NODE" name="Sketchfab_model">
                <matrix>0.00108688 0 0 0 0 0.00108688 -1.74783e-19 0 0 1.74783e-19 0.00108688 0 0 0 0 1</matrix>
                <node id="NODE0" name="chair_low_obj_cleaner_gles">
                    <matrix>1 0 0 -253.681 0 1 1.32349e-23 910.559 0 -1.32349e-23 1 -417.564 0 0 0 1</matrix>
                    <node id="NODE1" name="Object_2">
                        <node id="NODE2" name="Object_3">
                            <instance_geometry url="#NODE2-lib">
                                <bind_material>
                                    <technique_common>
                                        <instance_material symbol="MAT" target="#MAT" />
                                    </technique_common>
                                </bind_material>
                            </instance_geometry>
                        </node>
                    </node>
                </node>
            </node>
        </visual_scene>
    </library_visual_scenes>
    <scene>
        <instance_visual_scene url="#RootNode" />
    </scene>
</COLLADA>
